<svg width="69" height="36" viewBox="0 0 69 36" fill="none" xmlns="http://www.w3.org/2000/svg">
<g clip-path="url(#clip0_218_11388)">
<path d="M42.1616 0C41.7586 1.95131 41.3578 3.88129 40.9463 5.86885H64.0302C61.8896 15.9474 59.7639 25.9662 57.634 36H28.6187C29.1688 33.4772 29.7146 30.9735 30.271 28.4187H0C1.98495 18.9181 3.95924 9.47077 5.9378 0H42.1616ZM39.0317 9.78212C39.0999 9.95486 39.1468 10.0913 39.2044 10.2236C40.6201 13.431 42.0315 16.6383 43.4579 19.8393C43.5986 20.155 43.5751 20.3576 43.347 20.6263C40.4858 24 37.6395 27.3865 34.7889 30.7709C34.4286 31.1974 34.0747 31.6282 33.693 32.0867C33.7932 32.1102 33.8295 32.1272 33.8657 32.1272C35.4584 32.1272 37.051 32.1336 38.6415 32.1166C38.7865 32.1166 38.9699 32.0121 39.0658 31.8969C41.055 29.5511 43.0336 27.1967 45.0143 24.8445C45.4577 24.3178 45.6816 24.3391 45.9566 24.9447C46.8479 26.9088 47.7348 28.8751 48.6281 30.837C48.8179 31.2529 48.916 31.8287 49.2443 32.0334C49.5876 32.2488 50.1547 32.1187 50.6237 32.1208C51.8902 32.1272 53.1566 32.1208 54.4572 32.1208C54.4188 31.9993 54.3975 31.9097 54.3612 31.8287C52.7537 28.2652 51.1482 24.7016 49.5279 21.1445C49.4106 20.8864 49.4149 20.7329 49.6067 20.5111C52.387 17.3165 55.1565 14.1112 57.9282 10.9081C58.2331 10.5562 58.5337 10.2044 58.8428 9.84183C58.7767 9.80558 58.7554 9.78426 58.7341 9.78426C57.0882 9.78212 55.4422 9.77572 53.7962 9.79065C53.6683 9.79065 53.5084 9.90581 53.421 10.0146C51.6258 12.2239 49.8413 14.4397 48.0525 16.6554C47.6367 17.1715 47.5344 17.1608 47.2807 16.5637C46.398 14.493 45.4983 12.4286 44.6454 10.3451C44.4621 9.89515 44.2382 9.75866 43.767 9.76719C42.2042 9.79918 40.6435 9.77999 39.0338 9.77999L39.0317 9.78212ZM35.081 3.88555C35.049 4.0199 35.017 4.1372 34.9914 4.25449C34.4307 6.88822 33.87 9.52195 33.305 12.1557C33.2815 12.2602 33.209 12.354 33.1579 12.4521C33.0832 12.3753 32.9745 12.3114 32.9383 12.2197C32.4649 11.0297 31.61 10.2214 30.416 9.81411C28.2435 9.07197 26.2116 9.50062 24.4889 10.9188C21.4699 13.4075 20.5616 16.7386 21.229 20.4813C21.5978 22.552 22.8941 24.0299 24.9878 24.5651C27.2115 25.1324 29.1368 24.4841 30.7209 22.8228C30.8467 22.6906 30.9832 22.569 31.1132 22.4432C31.1495 22.4688 31.1878 22.4965 31.2241 22.5221C31.0962 23.1704 30.9704 23.8187 30.836 24.5054C31.5503 24.5054 32.1963 24.499 32.8423 24.5076C33.096 24.5118 33.1024 24.3455 33.1408 24.1663C34.3987 18.2378 35.6588 12.3114 36.9188 6.38493C37.0937 5.55962 37.26 4.73432 37.4348 3.88555H35.0831H35.081ZM8.83954 17.6492C9.05701 17.6492 9.21691 17.6492 9.37682 17.6492C12.6005 17.6492 15.8242 17.6492 19.0479 17.6492C19.2653 17.6492 19.5063 17.6854 19.5084 17.357C19.5148 16.2673 19.6491 15.1605 19.4913 14.0942C19.2078 12.1578 18.1524 10.6906 16.2975 9.9314C13.3787 8.73716 9.77765 9.94633 8.01443 12.6547C6.63925 14.7702 6.16806 17.1118 6.4431 19.5728C6.70961 21.9698 7.97179 23.71 10.3426 24.4436C12.3233 25.0578 14.2678 24.8104 16.112 23.8784C17.2207 23.3176 18.0223 22.4411 18.5127 21.2938C18.5809 21.1317 18.6129 20.9525 18.6726 20.7436C17.8752 20.7436 17.1482 20.7329 16.4212 20.7542C16.306 20.7564 16.1547 20.8715 16.0886 20.9781C14.9159 22.9167 11.7413 22.9806 10.4386 22.0295C8.94614 20.9398 8.71801 19.3915 8.83741 17.6513L8.83954 17.6492Z" fill="#FF5900"/>
<path d="M67.0982 9.63913C66.0428 9.63913 65.1985 8.79463 65.1985 7.73687C65.1985 6.68765 66.0492 5.84315 67.1088 5.83888C68.1535 5.83462 69.0021 6.68978 69 7.74754C69 8.80743 68.1642 9.63913 67.0982 9.63913ZM65.5865 7.75394C65.5908 8.61123 66.2816 9.28939 67.1365 9.27659C67.9574 9.26593 68.6439 8.56005 68.6354 7.73474C68.6269 6.87958 67.9361 6.20782 67.0768 6.21635C66.2411 6.22488 65.5823 6.90304 65.5887 7.75394H65.5865Z" fill="#FF5900"/>
<path d="M23.4357 18.2483C23.4783 16.6062 23.86 15.0623 24.8322 13.7187C25.9941 12.115 27.5697 11.3367 29.5611 11.6544C31.0216 11.889 31.9383 12.8167 32.3115 14.2327C32.8807 16.3887 32.2112 19.9395 29.8638 21.7159C28.4162 22.8099 26.4525 22.9762 25.1051 22.0486C24.103 21.3598 23.6617 20.3382 23.4996 19.176C23.457 18.871 23.457 18.5575 23.4357 18.2483Z" fill="#FF5900"/>
<path d="M17.1823 15.7576H9.18921C9.71156 13.2817 11.7967 11.1044 14.5855 11.6183C16.0822 11.8934 17.1013 13.158 17.1781 14.8001C17.193 15.1051 17.1781 15.4122 17.1781 15.7576H17.1823Z" fill="#FF5900"/>
<path d="M67.9063 8.54099C67.5609 8.70093 67.482 8.47488 67.4095 8.29788C67.3008 8.02491 67.1345 7.91615 66.8061 8.02917C66.7976 8.13793 66.8061 8.27229 66.772 8.39384C66.7486 8.47275 66.659 8.53033 66.5972 8.59857C66.5503 8.53033 66.4671 8.46422 66.465 8.39384C66.4543 7.89695 66.4586 7.40006 66.4586 6.86052C66.7976 6.86052 67.1046 6.83493 67.4052 6.86692C67.74 6.90317 67.998 7.29557 67.8125 7.55148C67.5417 7.92681 67.6803 8.21044 67.9041 8.54099H67.9063ZM66.804 7.80099C67.0705 7.70289 67.2731 7.65597 67.4415 7.55148C67.4905 7.52162 67.4777 7.24865 67.4351 7.23159C67.2432 7.15268 67.03 7.12496 66.804 7.07378V7.80099Z" fill="#FF5900"/>
</g>
<defs>
<clipPath id="clip0_218_11388">
<rect width="69" height="36" fill="white"/>
</clipPath>
</defs>
</svg>
