<?xml version="1.0" encoding="UTF-8"?>
<svg id="Capa_2" data-name="Capa 2" xmlns="http://www.w3.org/2000/svg" viewBox="0 0 780 778">
  <defs>
    <style>
      .cls-1 {
        fill: #ff5700;
      }

      .cls-2 {
        fill: #fff;
      }
    </style>
  </defs>
  <g id="Layer_1" data-name="Layer 1">
    <path class="cls-2" d="M675.36,647L492,131h96.5V42.7h-.2v-.1H191.7v.1h0v88.3h96.46L104.8,647h-62.2v.1h0v88.3h242.5v-88.4h-84.77l48.47-145.3h282.6l48.47,145.3h-84.77v.1h0v88.3h0s242.5,0,242.5,0v-88.4h-62.24ZM274.63,425.4l100.47-294.4h29.8l100.47,294.4h-230.73Z"/>
    <polygon class="cls-1" points="495.1 647.1 495.1 647.1 494.9 647.1 494.9 735.4 495.1 735.4 495.1 735.3 495.1 647.1"/>
    <rect class="cls-1" x="327.7" y="604.4" width=".1" height="173.6"/>
    <polygon class="cls-1" points="531.4 501.7 531.2 501.7 579.67 647 579.87 647 531.4 501.7"/>
    <rect class="cls-1" x="42.6" y="735.4" width="242.3" height="0"/>
    <polygon class="cls-1" points="259.4 604.4 259.5 604.4 279.5 544.3 279.4 544.3 259.4 604.4"/>
    <rect class="cls-1" x="779.9" y="604.4" width=".1" height="173.6"/>
    <path d="M705.2,604.4h-.1.1l-153.1-430.8h78.8V0H149.1v173.6h78.8l-153.1,430.8H0v173.6h327.7v-173.6h-68.3l20-60.1h221.2l20,60.1h-68.3v173.6h327.6v-173.6h-74.7ZM737.6,647.1v88.3h-242.5s-.2,0-.2,0v-88.3h.2v-.1h84.57l-48.47-145.3H248.8l-48.47,145.3h84.77v88.4h-.2s-242.3,0-242.3,0h0v-88.3h0v-.1h62.2L288.16,131h-96.46s0,0,0,0V42.7h0v-.1h396.6v.1h0s.2,0,.2,0v88.3h-96.5l183.36,516h62.24v.1Z"/>
    <path d="M404.9,131h-29.8l-100.47,294.4h230.73l-100.47-294.4h0ZM334.3,382.8h-.1.1l55.8-163.6,55.8,163.6h-111.6Z"/>
  </g>
</svg>