<svg width="147" height="36" viewBox="0 0 147 36" fill="none" xmlns="http://www.w3.org/2000/svg">
<g clip-path="url(#clip0_218_11387)">
<path d="M2.67163 20.2222C2.67163 20.2222 9.66795 13.9666 12.7756 11.1805C12.8087 11.15 12.8446 11.125 12.9081 11.075C13.4656 11.7361 14.0175 12.3888 14.5888 13.0666C11.1776 16.0694 7.78019 19.0555 4.36344 22.0611C3.95774 21.6305 3.17393 20.7944 3.17393 20.7944L2.67163 20.2194V20.2222Z" fill="#FF5900"/>
<path d="M147 8.14728H145.267C145.118 6.49728 144.969 4.82784 144.82 3.1584C144.795 3.15284 144.767 3.14728 144.742 3.13895C144.64 3.34173 144.53 3.54451 144.433 3.75006C143.768 5.14173 143.106 6.53617 142.446 7.93062C142.374 8.08617 142.308 8.17228 142.107 8.17506C141.905 8.17506 141.836 8.09451 141.762 7.93895C141.075 6.49451 140.382 5.05284 139.689 3.61117C139.631 3.49173 139.565 3.37506 139.504 3.25562C139.468 3.25562 139.432 3.2584 139.396 3.26117C139.258 4.89173 139.12 6.52228 138.985 8.15562H137.978C138.356 5.59728 138.734 3.05284 139.115 0.466729C139.355 0.466729 139.623 0.444507 139.885 0.47784C139.979 0.491729 140.081 0.633396 140.133 0.738951C140.768 2.0584 141.392 3.38062 142.024 4.70284C142.189 5.04728 142.366 5.3834 142.573 5.78895C142.813 5.33062 143.034 4.93617 143.227 4.5334C143.837 3.26673 144.439 1.99451 145.035 0.722284C145.123 0.536173 145.203 0.438951 145.435 0.486173C145.639 0.52784 145.86 0.494507 146.128 0.494507C146.164 0.763951 146.208 1.06117 146.244 1.36117C146.476 3.31395 146.707 5.26673 146.939 7.21673C146.945 7.25562 146.981 7.29173 147.003 7.33062V8.15006L147 8.14728Z" fill="#FF5900"/>
<path d="M0 17.3862C0 17.3862 5.84545 12.1917 7.18399 11.0001C8.19963 10.0945 9.21251 9.18895 10.2585 8.25562C10.816 8.9195 11.3597 9.56673 11.9338 10.2501C11.6274 10.5223 11.3321 10.7945 11.0313 11.0584C8.50322 13.2834 1.67525 19.2195 1.67525 19.2195L0.00275989 17.3889L0 17.3862Z" fill="#FF5900"/>
<path d="M147 26.2695H144.679V21.9333H145.261V25.9806C145.863 25.9389 146.431 25.9 147 25.8583V26.2695Z" fill="#FF5900"/>
<path d="M28.9843 21.7834V35.0056H19.9816V0.155589H20.3542C25.0294 0.155589 29.7074 0.138922 34.3827 0.163922C36.4305 0.175033 38.4011 0.575033 40.2281 1.55559C42.5299 2.78892 44.0533 4.68337 44.8565 7.15837C45.6292 9.54725 45.6513 11.9778 45 14.3917C44.2189 17.2861 42.3312 19.1834 39.574 20.2361C39.0496 20.4361 38.5087 20.5889 37.9402 20.7723C41.5501 25.5084 45.1518 30.2361 48.8059 35.0334C48.5851 35.0334 48.4443 35.0334 48.3036 35.0334C44.8399 35.0334 41.3735 35.0306 37.9098 35.0389C37.6504 35.0389 37.5069 34.9584 37.3689 34.7389C34.6366 30.4611 31.8933 26.1889 29.1527 21.9167C29.1196 21.8639 29.0809 21.8111 29.045 21.7584C29.0257 21.7667 29.0036 21.775 28.9843 21.7834ZM28.9981 15.8C30.149 15.7334 31.2861 15.7473 32.3928 15.5834C34.3358 15.2973 35.9779 14.2195 36.1656 11.8667C36.3008 10.1667 35.6909 8.60837 33.9908 7.79725C33 7.32503 31.9429 7.17503 30.8611 7.16948C30.2428 7.1667 29.6274 7.16948 28.9954 7.16948V15.8H28.9981Z" fill="#FF5900"/>
<path d="M64.3027 0.172119H73.333C73.333 0.316564 73.333 0.461008 73.333 0.602675C73.333 7.01934 73.3192 13.436 73.3468 19.8499C73.3523 21.0971 73.4379 22.3582 73.6421 23.586C73.9292 25.3027 74.7792 26.6943 76.4075 27.4832C77.1858 27.8582 78.0248 27.9777 78.8749 28.0166C79.896 28.0666 80.9172 28.0249 81.8914 27.686C83.4066 27.1582 84.3588 26.061 84.9108 24.5749C85.3137 23.4805 85.4489 22.3416 85.4517 21.1888C85.4848 14.3416 85.4986 7.49156 85.5207 0.644341C85.5207 0.497119 85.5207 0.349897 85.5207 0.180452H94.4821C94.4821 0.291564 94.4821 0.411008 94.4821 0.530452C94.4821 7.34434 94.4903 14.161 94.4765 20.9749C94.471 23.3749 94.1647 25.7388 93.3671 28.0166C92.0092 31.8943 89.2576 34.2249 85.3689 35.2916C83.1086 35.911 80.804 36.0443 78.4775 35.9888C76.5014 35.9416 74.5584 35.6777 72.6734 35.0582C68.5612 33.7082 66.0773 30.8443 65.0037 26.6749C64.5345 24.8471 64.3082 22.986 64.3054 21.1027C64.2944 14.2749 64.3027 7.4499 64.3027 0.622119V0.172119Z" fill="#FF5900"/>
<path d="M50.3348 10.7612H59.2686V34.989H50.3348V10.7612Z" fill="#FF5900"/>
<path d="M59.2632 7.83613H50.3322V0.18335H59.2632V7.83613Z" fill="#FF5900"/>
<path d="M15.403 13.8833C15.977 14.5666 16.5207 15.2139 17.0865 15.8861C13.6643 18.8944 10.2696 21.8805 6.8556 24.8861C6.29259 24.2694 5.74337 23.6694 5.16931 23.0389C8.58605 19.9805 11.9835 16.9444 15.4057 13.8833H15.403Z" fill="#FF5900"/>
<path d="M17.3514 34.9278C14.3818 31.5667 11.4618 28.2583 8.52808 24.9389C9.19321 24.3722 9.83902 23.8222 10.5124 23.25C10.885 23.675 11.2521 24.0861 11.6136 24.5028C13.4821 26.6528 15.3478 28.8 17.2107 30.9556C17.299 31.0583 17.3763 31.2111 17.379 31.3417C17.3928 32.4694 17.3873 33.5944 17.3846 34.7222C17.3846 34.7639 17.3735 34.8056 17.3542 34.9278H17.3514Z" fill="#FF5900"/>
<path d="M114.279 18.5723H112.526V14.8307C111.966 14.8307 111.406 14.8307 110.843 14.8307C110.434 14.8307 110.026 14.8585 109.62 14.839C109.303 14.8251 109.179 14.9112 109.195 15.2557C109.236 16.2112 109.248 17.1668 109.27 18.1223C109.272 18.2668 109.27 18.414 109.27 18.5723H107.487V10.889H109.239V13.9307H112.523V10.8862H114.276V18.5723H114.279Z" fill="#FF5900"/>
<path d="M117.936 15.0361V18.5722H116.167V10.8555C116.821 10.8555 117.497 10.8499 118.17 10.8555C118.711 10.8611 119.258 10.8444 119.793 10.9138C120.604 11.0194 121.173 11.5638 121.311 12.2694C121.49 13.1972 121.192 13.9861 120.464 14.4361C120.218 14.5888 119.945 14.6972 119.63 14.8527C120.408 16.0833 121.181 17.3055 121.971 18.5555C121.579 18.5555 121.189 18.4972 120.828 18.5694C120.11 18.7111 119.771 18.3833 119.478 17.7694C119.073 16.9194 118.568 16.1194 118.104 15.2999C118.063 15.2277 118.013 15.1583 117.938 15.0361H117.936ZM117.902 11.4555C117.902 12.4972 117.897 13.4388 117.911 14.3777C117.911 14.4444 118.04 14.5583 118.118 14.5666C118.722 14.6416 119.379 14.2583 119.5 13.6666C119.594 13.2027 119.567 12.7027 119.511 12.2277C119.487 12.0333 119.28 11.7749 119.095 11.7027C118.741 11.5638 118.344 11.5388 117.902 11.4527V11.4555Z" fill="#FF5900"/>
<path d="M100.035 0.488963C101.175 0.488963 102.315 0.461185 103.452 0.497296C104.379 0.527852 105.061 1.07785 105.182 1.89174C105.32 2.80563 105.146 3.62785 104.139 4.15841C103.951 4.25841 103.744 4.3223 103.488 4.42785C104.271 5.66952 105.05 6.90007 105.858 8.17785C105.19 8.17785 104.572 8.18618 103.957 8.16674C103.868 8.16674 103.758 8.03896 103.706 7.94452C103.145 6.96952 102.593 5.99174 102.041 5.01396C101.975 4.8973 101.906 4.78063 101.79 4.58341V8.13896H100.035V0.488963ZM101.785 1.08063V4.10285C102.221 4.25285 102.839 4.07785 103.154 3.71118C103.523 3.27785 103.628 2.22785 103.336 1.66674C103.007 1.03619 102.392 1.1723 101.782 1.08063H101.785Z" fill="#FF5900"/>
<path d="M127.788 8.17782C127.537 8.17782 127.278 8.19449 127.024 8.16949C126.93 8.16115 126.831 8.07227 126.762 7.99727C125.249 6.31949 123.74 4.63893 122.23 2.95838C122.197 2.91949 122.153 2.89171 122.073 2.82227V8.14727H121.12C121.178 5.61115 121.234 3.05282 121.292 0.497266C121.546 0.483377 121.846 0.455599 122.147 0.463932C122.235 0.463932 122.338 0.563932 122.409 0.64171C123.867 2.24727 125.324 3.85282 126.776 5.46115C126.842 5.53338 126.886 5.62504 126.938 5.70838C126.966 5.68893 126.994 5.66671 127.021 5.64727V0.488932H127.959C127.904 3.03893 127.846 5.59449 127.791 8.1806L127.788 8.17782Z" fill="#FF5900"/>
<path d="M117.795 4.76104H119.429V7.89992C118.83 8.01937 118.261 8.1527 117.684 8.24159C116.542 8.41659 115.408 8.39159 114.315 7.95548C112.648 7.28881 111.789 5.72492 112.032 3.94159C112.333 1.74437 113.867 0.588814 115.824 0.349925C117.058 0.199925 118.228 0.355481 119.335 0.977703C119.244 1.32492 119.155 1.66381 119.064 1.99992C119.015 2.18604 118.913 2.17492 118.797 2.06104C118.661 1.92492 118.545 1.76659 118.399 1.64159C117.29 0.688814 115.703 0.827703 114.698 1.95548C113.683 3.09992 113.567 5.3777 114.472 6.61104C115.043 7.39159 115.835 7.71381 116.779 7.62215C117.795 7.52492 117.792 7.50826 117.792 6.5027C117.792 5.92492 117.792 5.34992 117.792 4.75826L117.795 4.76104Z" fill="#FF5900"/>
<path d="M10.4987 6.25002C11.1666 5.68057 11.8124 5.13335 12.483 4.55835C12.8998 5.03335 13.3055 5.48891 13.7056 5.94724C14.8731 7.29168 16.0405 8.6389 17.2024 9.9889C17.2852 10.0861 17.3763 10.2195 17.3763 10.3361C17.3901 11.5306 17.3846 12.725 17.3156 13.9639C15.0497 11.3972 12.7811 8.83335 10.4987 6.24724V6.25002Z" fill="#FF5900"/>
<path d="M135.593 0.480501H136.653C136.653 0.872168 136.659 1.27495 136.653 1.6805C136.634 2.56939 136.626 3.4555 136.581 4.34161C136.551 4.94161 136.515 5.54717 136.405 6.13606C136.167 7.38328 135.342 8.04439 134.139 8.26383C133.35 8.40828 132.56 8.35828 131.787 8.13883C130.656 7.82217 129.922 6.94161 129.891 5.76106C129.856 4.36106 129.883 2.96106 129.886 1.55828C129.886 1.19995 129.886 0.838835 129.886 0.472168H131.666C131.633 1.17217 131.569 1.86106 131.572 2.54995C131.572 3.63883 131.6 4.7305 131.655 5.81939C131.669 6.11383 131.801 6.41383 131.923 6.69161C132.113 7.12495 132.453 7.41106 132.925 7.46939C133.325 7.51939 133.736 7.55828 134.136 7.52495C134.622 7.48606 134.997 7.17772 135.171 6.73883C135.37 6.23883 135.563 5.70272 135.58 5.17494C135.632 3.68606 135.591 2.19439 135.588 0.705501C135.588 0.627723 135.593 0.552724 135.599 0.480501H135.593Z" fill="#FF5900"/>
<path d="M106.755 0.469482H111.025V1.43893C110.216 1.39448 109.399 1.34726 108.527 1.30004V3.68615H110.964V4.58615H108.466C108.466 4.82226 108.466 5.07781 108.466 5.33615C108.466 5.90559 108.48 6.47504 108.466 7.04448C108.461 7.28615 108.555 7.36393 108.787 7.35004C109.529 7.30837 110.271 7.27781 111.019 7.2417V8.16948H106.75V0.469482H106.755Z" fill="#FF5900"/>
<path d="M17.3072 29.0445C15.3201 26.7945 13.333 24.5445 11.3265 22.2751C11.9972 21.7056 12.6485 21.1501 13.3164 20.5862C14.2051 21.6084 15.0745 22.6112 15.9466 23.6112C16.3633 24.0917 16.7856 24.5667 17.1968 25.0528C17.2796 25.1501 17.3762 25.2834 17.3762 25.4001C17.39 26.6056 17.3845 27.8112 17.3845 29.0167C17.3597 29.0278 17.3321 29.039 17.3072 29.0501V29.0445Z" fill="#FF5900"/>
<path d="M105.902 12.5029C105.775 12.3862 105.701 12.3279 105.637 12.2556C104.534 11.0195 102.767 11.1473 101.912 12.5862C101.142 13.8779 101.084 15.2806 101.729 16.6362C102.433 18.1223 104.241 18.489 105.635 17.4973C105.767 17.4029 105.894 17.3084 106.04 17.2029C106.165 17.7417 105.889 18.3279 105.453 18.4584C104.04 18.8779 102.646 18.8945 101.304 18.2001C99.9383 17.4917 99.4388 16.139 99.4774 14.8334C99.4967 14.1362 99.6099 13.4556 99.9328 12.8223C100.587 11.539 101.699 10.9612 103.054 10.7584C104.015 10.614 104.942 10.739 105.85 11.0779C106.112 11.1751 106.245 11.2779 106.112 11.5945C106.007 11.8501 105.985 12.139 105.908 12.5056L105.902 12.5029Z" fill="#FF5900"/>
<path d="M127.921 18.8223C127.413 18.6862 126.891 18.5584 126.381 18.4001C126.301 18.3751 126.207 18.2001 126.221 18.1084C126.281 17.739 126.375 17.3779 126.469 17.014C126.486 16.9473 126.566 16.8945 126.615 16.8362C126.662 16.889 126.726 16.9307 126.751 16.9918C127.118 17.8612 127.849 18.2251 128.754 17.9862C129.544 17.7779 129.842 16.7112 129.218 16.1668C128.818 15.8168 128.304 15.5945 127.841 15.3195C127.617 15.1862 127.377 15.0807 127.167 14.9279C126.32 14.3057 126.033 13.4723 126.293 12.4362C126.513 11.5529 127.275 10.889 128.219 10.7445C128.967 10.6279 129.679 10.7168 130.35 11.089C130.526 11.1862 130.592 11.2918 130.501 11.4973C130.41 11.7029 130.366 11.9307 130.289 12.1418C130.258 12.2279 130.189 12.2973 130.14 12.3751C130.074 12.3084 129.991 12.2529 129.947 12.1751C129.593 11.539 128.945 11.2668 128.282 11.4834C127.499 11.739 127.275 12.6418 127.907 13.1695C128.299 13.4973 128.793 13.7001 129.232 13.9751C129.621 14.2195 130.057 14.4307 130.369 14.7584C131.465 15.9112 130.979 17.8334 129.436 18.4529C128.972 18.639 128.459 18.6918 127.918 18.8195L127.921 18.8223Z" fill="#FF5900"/>
<path d="M137.291 10.8667V11.8306C136.653 11.7889 136.016 11.7445 135.351 11.7V18.5695H133.598V11.7C132.93 11.7445 132.282 11.7889 131.608 11.8361V10.8667H137.291Z" fill="#FF5900"/>
<path d="M124.799 10.8945V18.5584H123.033V10.8945H124.799Z" fill="#FF5900"/>
<path d="M140.291 18.5723H138.538V10.8806H140.291V18.5723Z" fill="#FF5900"/>
<path d="M13.2944 3.5862C13.9651 3.01675 14.6109 2.46675 15.2871 1.89453C15.7314 2.40286 16.1316 2.92786 16.6035 3.37786C17.2218 3.96398 17.4839 4.62231 17.4039 5.48898C17.3266 6.3362 17.3846 7.19453 17.3791 8.04731C17.3791 8.06675 17.3598 8.08342 17.3266 8.15009C15.9826 6.63064 14.6523 5.12509 13.2944 3.58898V3.5862Z" fill="#FF5900"/>
<path d="M14.1279 19.7611C14.8041 19.1861 15.4472 18.6361 16.1178 18.0667C16.5263 18.5389 16.9237 18.9972 17.3156 19.4639C17.3625 19.5194 17.3818 19.6083 17.3846 19.6833C17.3874 20.9 17.3874 22.1139 17.3184 23.3722C16.2613 22.175 15.2043 20.9778 14.1307 19.7611H14.1279Z" fill="#FF5900"/>
<path d="M132.522 26.3334C130.512 26.3862 129.845 24.6779 130.292 23.2751C130.548 22.4723 131.122 22.0195 131.931 21.8806C132.773 21.7362 133.584 21.8084 134.244 22.4334C134.89 23.0473 135.08 24.1223 134.724 25.0279C134.407 25.8334 133.664 26.3195 132.723 26.3334C132.654 26.3334 132.588 26.3334 132.519 26.3334H132.522ZM130.794 24.0945C130.794 24.0945 130.81 24.0945 130.822 24.0945C130.822 24.2084 130.816 24.3223 130.822 24.4362C130.879 25.4029 131.459 26.0029 132.425 26.0973C133.289 26.1806 133.976 25.6668 134.172 24.739C134.244 24.4001 134.249 24.0362 134.224 23.689C134.164 22.7918 133.546 22.1418 132.751 22.089C131.721 22.0195 131.086 22.4779 130.874 23.4529C130.827 23.6612 130.822 23.8806 130.797 24.0945H130.794Z" fill="#FF5900"/>
<path d="M119.092 30.8305C119.092 31.3305 119.078 31.8277 119.095 32.3277C119.117 32.9166 119.128 32.9139 118.51 32.8583V28.5583C119.136 28.5583 119.779 28.525 120.414 28.5722C120.82 28.6027 121.134 28.8527 121.223 29.2889C121.311 29.7305 121.181 30.1139 120.82 30.375C120.588 30.5416 120.309 30.6444 120.014 30.7972C120.538 31.4639 121.076 32.1444 121.617 32.8277C121.107 32.9722 120.955 32.9166 120.657 32.525C120.27 32.0194 119.881 31.5166 119.487 31.0194C119.404 30.9166 119.28 30.8472 119.175 30.7639L119.098 30.8333L119.092 30.8305ZM119.111 30.5139C119.63 30.5472 120.16 30.5944 120.513 30.0944C120.72 29.8055 120.742 29.4527 120.546 29.1611C120.199 28.6472 119.655 28.7972 119.111 28.8027V30.5139Z" fill="#FF5900"/>
<path d="M114.433 24.1806C114.972 24.8612 115.504 25.5334 116.053 26.2306C115.615 26.3056 115.289 26.2806 115.027 25.8584C114.704 25.3417 114.29 24.8806 113.906 24.4028C113.826 24.3028 113.699 24.239 113.525 24.1056V26.2306H112.938V21.9556C113.583 21.9556 114.224 21.9251 114.861 21.9667C115.278 21.9945 115.57 22.2612 115.65 22.6945C115.731 23.1362 115.593 23.5167 115.223 23.7695C114.994 23.9251 114.729 24.0278 114.433 24.1778V24.1806ZM113.501 23.064H113.495C113.495 23.2806 113.481 23.4973 113.503 23.7112C113.512 23.7862 113.6 23.9028 113.661 23.9112C114.061 23.9556 114.453 23.9167 114.784 23.6556C115.082 23.4195 115.176 22.9417 115.005 22.6001C114.823 22.2362 114.193 22.0084 113.68 22.1806C113.346 22.2917 113.564 22.6334 113.501 22.864C113.484 22.9278 113.501 23.0001 113.501 23.0667V23.064Z" fill="#FF5900"/>
<path d="M120.334 26.3194C119.304 25.1972 118.272 24.0722 117.188 22.8916V26.2277H116.815V21.8555C116.854 21.8333 116.892 21.811 116.931 21.7888C117.96 22.8972 118.99 24.0055 120.077 25.1749V21.936H120.433V26.3222C120.4 26.3222 120.367 26.3222 120.334 26.3194Z" fill="#FF5900"/>
<path d="M135.894 21.7972C136.924 22.9055 137.953 24.0139 139.049 25.1944V21.9278C139.187 21.9278 139.297 21.9278 139.405 21.9278C139.405 23.3861 139.405 24.8472 139.405 26.3055C139.374 26.3194 139.344 26.3333 139.314 26.3472C138.273 25.2167 137.236 24.0833 136.143 22.8944V26.225H135.765V21.8583C135.806 21.8361 135.85 21.8167 135.891 21.7944L135.894 21.7972Z" fill="#FF5900"/>
<path d="M104.771 25.211V21.9249H105.099V26.3027C105.069 26.3138 105.041 26.3277 105.011 26.3388C103.971 25.2055 102.93 24.0721 101.84 22.886V26.2332H101.445C101.481 24.7721 101.517 23.3138 101.556 21.7527C102.629 22.9082 103.667 24.0249 104.771 25.211Z" fill="#FF5900"/>
<path d="M104.972 32.8695H104.583C104.622 31.3973 104.663 29.9389 104.705 28.3806C105.781 29.5417 106.81 30.6528 107.895 31.8195V28.5473H108.232V32.9334C108.204 32.9389 108.174 32.9473 108.146 32.9528C107.111 31.8278 106.079 30.7001 105.044 29.5751C105.022 29.5889 104.997 29.6028 104.975 29.6167V32.8667L104.972 32.8695Z" fill="#FF5900"/>
<path d="M102.958 28.55H103.397C103.344 29.5973 103.328 30.6306 103.225 31.6556C103.154 32.3834 102.538 32.8834 101.771 32.9528C101.536 32.9723 101.294 32.9778 101.059 32.9417C100.071 32.7889 99.6486 32.2112 99.6624 31.1028C99.6735 30.2639 99.6624 29.4223 99.6624 28.5612H100.231C100.231 29.3889 100.231 30.2056 100.231 31.0223C100.231 31.2167 100.228 31.4139 100.264 31.6C100.416 32.3695 100.855 32.6806 101.716 32.65C102.378 32.6278 102.853 32.2139 102.897 31.4889C102.955 30.55 102.93 29.6028 102.938 28.6612C102.938 28.6306 102.944 28.5973 102.949 28.5528L102.958 28.55Z" fill="#FF5900"/>
<path d="M121.068 26.225C121.722 24.7528 122.376 23.2806 123.03 21.8083C123.066 21.8083 123.102 21.8083 123.138 21.8083C123.762 23.2778 124.385 24.7472 125.023 26.2556C124.841 26.2556 124.692 26.2806 124.554 26.2472C124.457 26.225 124.339 26.1417 124.3 26.0556C124.118 25.6417 123.972 25.2083 123.784 24.7972C123.737 24.6945 123.585 24.5945 123.472 24.5806C123.204 24.55 122.926 24.6028 122.661 24.5639C122.241 24.5028 122.045 24.6889 121.943 25.0695C121.871 25.3417 121.728 25.5972 121.667 25.8722C121.592 26.2167 121.421 26.3278 121.068 26.2195V26.225ZM122.28 24.2722H123.61C123.384 23.75 123.174 23.2639 122.937 22.7167C122.702 23.275 122.498 23.7583 122.28 24.2722Z" fill="#FF5900"/>
<path d="M142.104 21.8223C142.725 23.2889 143.346 24.7528 143.967 26.2223C143.354 26.3278 143.354 26.3278 143.15 25.7945C143.02 25.4556 142.893 25.1139 142.739 24.7862C142.692 24.6917 142.551 24.5917 142.446 24.5834C142.085 24.5584 141.723 24.5834 141.362 24.5695C141.171 24.5612 141.072 24.6306 141.011 24.8084C140.884 25.1723 140.713 25.525 140.616 25.8973C140.534 26.2223 140.382 26.3306 140.029 26.2223C140.685 24.7445 141.34 23.2723 141.996 21.8C142.032 21.8084 142.068 21.8139 142.104 21.8223ZM142.576 24.2778C142.347 23.7528 142.137 23.275 141.897 22.7223C141.657 23.2889 141.455 23.7695 141.237 24.2778H142.576Z" fill="#FF5900"/>
<path d="M109.799 21.9194H111.994V22.2917C111.464 22.2667 110.942 22.2417 110.387 22.2139V23.8028H111.853V24.1472H110.385V25.9222H112.04C112.046 26.0028 112.054 26.1083 112.063 26.2389H109.799V21.9222V21.9194Z" fill="#FF5900"/>
<path d="M114.229 28.5417H114.69C114.557 28.8501 114.43 29.1306 114.312 29.4167C113.865 30.4945 113.415 31.5751 112.976 32.6556C112.913 32.814 112.838 32.9306 112.664 32.8751C112.557 32.839 112.419 32.7667 112.38 32.6751C111.836 31.3529 111.306 30.0251 110.771 28.7001C110.754 28.6584 110.743 28.6167 110.721 28.5529H111.356C111.817 29.7445 112.283 30.9529 112.752 32.1612C112.786 32.1612 112.816 32.1612 112.849 32.164C113.307 30.9612 113.765 29.7556 114.229 28.5417Z" fill="#FF5900"/>
<path d="M115.372 32.8556V28.5583H117.571C117.577 28.6556 117.585 28.7611 117.591 28.8806H115.971V30.4195H117.425V30.7528H115.962V32.5389H117.618C117.624 32.6306 117.629 32.7278 117.635 32.8528H115.372V32.8556Z" fill="#FF5900"/>
<path d="M132.464 28.5444H134.674C134.68 28.6583 134.685 28.7667 134.691 28.8833H133.06V30.4222H134.534C134.539 30.5194 134.542 30.6305 134.547 30.7472C134.12 30.7472 133.703 30.7555 133.289 30.7417C133.132 30.7361 133.016 30.7278 133.018 30.9305C133.018 31.4639 133.018 31.9944 133.018 32.5417H134.683V32.8611H132.464V28.5444Z" fill="#FF5900"/>
<path d="M135.406 32.1028C135.695 32.2972 135.947 32.5306 136.245 32.65C136.661 32.8139 137.117 32.575 137.285 32.1834C137.481 31.725 137.357 31.3389 136.904 31.0889C136.637 30.9417 136.347 30.8417 136.076 30.7028C135.533 30.425 135.304 29.9722 135.406 29.4167C135.505 28.8917 135.927 28.5167 136.499 28.4611C136.921 28.4195 137.335 28.4222 137.694 28.7389C137.638 28.9139 137.583 29.0834 137.509 29.325C137.431 29.2056 137.382 29.1334 137.332 29.0556C137.139 28.7389 136.846 28.6639 136.51 28.725C136.201 28.7806 135.999 28.975 135.933 29.2806C135.861 29.6195 135.941 29.9222 136.261 30.1056C136.485 30.2334 136.722 30.3445 136.96 30.4445C137.672 30.7417 137.939 31.1 137.881 31.7C137.818 32.3445 137.396 32.8306 136.708 32.925C136.363 32.9722 135.996 32.8972 135.646 32.8306C135.386 32.7806 135.221 32.6195 135.367 32.3111C135.4 32.2445 135.395 32.1584 135.403 32.1056L135.406 32.1028Z" fill="#FF5900"/>
<path d="M122.158 32.111C122.44 32.2999 122.683 32.5277 122.97 32.6416C123.422 32.8194 123.867 32.5832 124.046 32.1416C124.225 31.6999 124.076 31.3027 123.615 31.0638C123.345 30.9249 123.055 30.8249 122.785 30.6832C122.271 30.4194 122.053 29.961 122.153 29.411C122.244 28.9166 122.655 28.5305 123.182 28.4666C123.624 28.4138 124.063 28.411 124.438 28.7416C124.38 28.9194 124.328 29.0888 124.256 29.311C124.184 29.211 124.134 29.1471 124.09 29.0777C123.883 28.7582 123.624 28.6471 123.246 28.7249C122.939 28.7888 122.741 28.986 122.677 29.286C122.605 29.6277 122.702 29.9277 123.017 30.1082C123.24 30.2388 123.48 30.3416 123.72 30.4416C124.432 30.7388 124.722 31.1471 124.628 31.7416C124.521 32.436 123.991 32.9305 123.279 32.9499C122.981 32.9582 122.677 32.8916 122.385 32.8221C122.117 32.761 121.976 32.5944 122.122 32.2999C122.155 32.2332 122.153 32.1499 122.161 32.111H122.158Z" fill="#FF5900"/>
<path d="M107.172 22.2444C106.722 22.2639 106.308 22.2833 105.872 22.3028V21.9194H109.065C109.071 22.0389 109.076 22.15 109.082 22.3055C108.762 22.2861 108.461 22.2805 108.163 22.2444C107.851 22.2083 107.724 22.2944 107.735 22.6444C107.768 23.7361 107.768 24.825 107.779 25.9167C107.779 26.0167 107.779 26.1167 107.779 26.2333H107.169V22.2417L107.172 22.2444Z" fill="#FF5900"/>
<path d="M124.819 21.9138H128.012V22.3055C127.689 22.286 127.377 22.2777 127.065 22.2472C126.795 22.2194 126.687 22.3055 126.695 22.5999C126.723 23.6777 126.726 24.7583 126.737 25.8388C126.737 25.961 126.737 26.086 126.737 26.236H126.132V22.2805H124.821V21.9166L124.819 21.9138Z" fill="#FF5900"/>
<path d="M126.787 28.9222V28.5444H129.988V28.9194C129.566 28.8972 129.144 28.875 128.685 28.8528V32.8555H128.095V28.8555C127.662 28.8778 127.236 28.9 126.787 28.925V28.9222Z" fill="#FF5900"/>
<path d="M109.452 28.5388H110.009V32.8638H109.452V28.5388Z" fill="#FF5900"/>
<path d="M125.492 28.5444H126.055V32.8611H125.492V28.5444Z" fill="#FF5900"/>
<path d="M130.725 28.55H131.296V32.8612H130.725V28.55Z" fill="#FF5900"/>
<path d="M128.754 21.925H129.326V26.2362H128.754V21.925Z" fill="#FF5900"/>
<path d="M100.261 26.2444H99.6761V21.9277H100.261V26.2444Z" fill="#FF5900"/>
<path d="M17.3542 2.49167C16.9154 1.99444 16.5152 1.54167 16.0957 1.06944C16.5097 0.719444 16.9099 0.377778 17.3542 0V2.49167Z" fill="#FF5900"/>
</g>
<defs>
<clipPath id="clip0_218_11387">
<rect width="147" height="36" fill="white"/>
</clipPath>
</defs>
</svg>
