<svg width="69" height="36" viewBox="0 0 69 36" fill="none" xmlns="http://www.w3.org/2000/svg">
<g clip-path="url(#clip0_218_11389)">
<path d="M59.4995 26.3228C56.6665 26.3228 53.8334 26.3248 51.0004 26.3186C50.6424 26.3186 50.4396 26.4381 50.3734 26.8087C49.9595 29.123 48.7717 30.9988 47.0086 32.5204C44.8378 34.3941 42.2862 35.4195 39.4553 35.8272C36.4567 36.2575 33.5782 35.8993 30.8817 34.5115C27.7073 32.8787 25.8096 30.2184 24.9053 26.821C24.2203 24.2452 24.2555 21.6199 24.45 18.9926C24.5101 18.1814 24.181 17.644 23.3946 17.4278C23.2684 17.3928 23.138 17.3639 23.0097 17.333C21.9854 17.0839 21.8157 17.1807 21.4266 18.1628C20.5016 20.5019 19.4131 22.7421 17.5569 24.519C16.0669 25.946 14.2955 26.6934 12.224 26.7943C8.59844 26.9713 5.55849 25.7668 3.16833 23.0365C1.76735 21.4367 0.89613 19.565 0.384988 17.5039C-0.0164754 15.8567 -0.0723492 14.1889 0.0745782 12.5252C0.459487 8.15391 2.95311 3.12371 7.99003 1.19853C11.2328 -0.0430672 14.3824 0.183425 17.3623 2.04067C17.4431 2.09008 17.5217 2.14156 17.6024 2.18892C18.3598 2.65014 18.5316 2.60072 18.9392 1.79358C19.0158 1.64327 19.0489 1.43943 19.1689 1.34883C19.3572 1.2047 19.6138 1.03792 19.8187 1.06469C19.9636 1.08322 20.1747 1.40031 20.1767 1.58768C20.1912 2.50601 20.125 3.42433 20.1291 4.34266C20.1333 5.69544 20.1705 7.04616 20.1954 8.39894C20.2016 8.74279 20.1622 9.05577 19.7359 9.11136C19.3324 9.16284 19.0737 8.96517 18.9848 8.58425C18.8213 7.87389 18.693 7.15529 18.5295 6.44492C18.0163 4.19235 15.8103 2.27951 13.5319 1.84712C10.1029 1.19441 7.26367 3.22255 5.93926 6.04341C5.00596 8.03037 4.62726 10.1409 4.49275 12.3049C4.30443 15.3276 4.47412 18.3152 5.67851 21.1464C6.53938 23.1683 7.87829 24.7497 10.1381 25.2871C12.3585 25.8142 14.3638 25.32 16.1083 23.8602C17.9521 22.3159 19.1027 20.2795 19.9367 18.0867C21.7515 13.3159 23.4795 8.51424 25.2385 3.72495C25.5489 2.88075 25.8407 2.02831 26.1449 1.17999C26.1945 1.03792 26.2483 0.895848 26.3208 0.76613C26.5174 0.409918 26.6477 -0.0307131 27.1858 0.00223135C27.7197 0.0331167 27.8232 0.49022 27.9618 0.860845C28.1853 1.45796 28.3529 2.07361 28.5392 2.68308C30.1368 7.91713 31.7157 13.1573 33.3443 18.3832C33.8741 20.0839 34.5735 21.7311 35.1199 23.4278C35.4737 24.5252 36.2063 24.9041 37.2824 24.9329C37.5493 24.9411 37.9301 25.1265 38.0501 25.3447C38.3419 25.8677 38.0108 26.2795 37.3631 26.2672C36.1359 26.2425 34.9109 26.1704 33.6858 26.1704C32.5166 26.1704 31.3473 26.2363 30.1781 26.2692C29.8263 26.2795 29.4787 26.2795 29.4414 25.7895C29.4083 25.3632 29.5677 25.1038 30.0126 25.0441C30.1802 25.0215 30.3437 24.97 30.5134 24.9432C31.3536 24.8135 31.4901 24.6426 31.2584 23.8334C30.6748 21.7991 30.0685 19.773 29.4725 17.7428C29.3669 17.3804 29.1683 17.2239 28.7668 17.2939C28.175 17.3969 27.5728 17.4401 26.9788 17.5369C26.1821 17.6666 25.8179 18.2246 25.7476 18.9535C25.4578 22.0441 25.5096 25.1059 26.7781 28.0194C28.3674 31.67 31.1487 33.8403 35.1033 34.4271C36.3408 34.6103 37.63 34.7256 38.8655 34.5877C41.8682 34.2562 44.8854 32.4298 45.9987 28.9665C47.0375 25.738 46.096 22.9254 43.7906 20.6048C42.071 18.8732 40.1651 17.3207 38.3005 15.7373C36.6036 14.296 34.9647 12.8011 34.2321 10.6392C33.1726 7.51767 33.6051 4.63504 35.9807 2.20745C36.9264 1.24176 38.1412 0.759953 39.4822 0.514929C41.5578 0.136068 43.4471 0.55405 45.233 1.61033C45.8725 1.98919 46.0711 1.91095 46.4167 1.23353C46.5098 1.05028 46.5678 0.825842 46.7106 0.692005C46.8699 0.543755 47.1286 0.370797 47.3045 0.4058C47.47 0.438745 47.6563 0.710536 47.706 0.908203C47.7722 1.17176 47.7101 1.46826 47.7122 1.74828C47.7184 3.64259 47.7246 5.53689 47.7308 7.43325C47.7308 7.58356 47.768 7.75446 47.7101 7.88006C47.619 8.07567 47.4597 8.3907 47.3314 8.38864C47.0748 8.38452 46.6671 8.26304 46.5947 8.08185C46.3877 7.56915 46.2967 7.00498 46.1994 6.45522C45.8228 4.33236 44.8502 2.66867 42.667 1.98301C41.2867 1.55062 39.9022 1.54444 38.6213 2.32069C36.5374 3.58288 36.0076 6.52728 37.4645 8.61514C38.4826 10.077 39.896 11.121 41.2805 12.1978C43.2712 13.7483 45.3696 15.169 47.1038 17.0263C48.751 18.7908 50.0258 20.7572 50.4914 23.1642C50.5679 23.5657 50.5679 23.9858 50.57 24.3976C50.5741 24.7661 50.7024 24.8958 51.0894 24.8361C52.3352 24.6467 52.567 24.3646 52.5773 22.8533C52.6146 17.4236 52.6518 11.9919 52.6725 6.56229C52.6767 5.49365 52.6208 4.42296 52.5732 3.35638C52.5401 2.59043 52.2317 2.30216 51.4702 2.23216C51.0584 2.19303 50.6486 2.09008 50.2368 2.07361C49.7857 2.05508 49.7153 1.80182 49.7278 1.43737C49.7402 1.07292 49.7898 0.729067 50.2534 0.720831C50.9715 0.706418 51.6895 0.718772 52.4076 0.724949C55.729 0.751717 59.0483 0.792897 62.3697 0.803192C63.7272 0.80731 65.0868 0.764071 66.4444 0.706418C67.0341 0.68171 67.2225 0.97615 67.2225 1.48473C67.2266 3.15872 67.239 4.83065 67.2059 6.50463C67.2018 6.72083 66.9327 7.11205 66.7982 7.10793C66.5582 7.09969 66.2126 6.90203 66.1174 6.68995C65.9208 6.25549 65.836 5.76338 65.747 5.28569C65.4676 3.79084 64.4743 2.99194 63.0919 2.59454C61.4095 2.11067 59.6795 2.00978 57.9371 2.0592C57.399 2.07361 56.6871 1.94183 56.3767 2.22392C56.1036 2.47512 56.2567 3.21019 56.2546 3.73113C56.2464 6.30697 56.2671 8.88281 56.236 11.4586C56.2298 12.0414 56.4119 12.239 56.9789 12.1711C57.6701 12.0908 58.382 12.1155 59.0587 11.9734C60.5693 11.6543 60.9563 10.7792 61.2771 9.25961C61.3536 8.8931 61.3392 8.49571 61.4819 8.16009C61.5709 7.94801 61.8751 7.69887 62.0779 7.70299C62.2642 7.7071 62.5746 8.01596 62.5974 8.21774C62.6636 8.79221 62.6056 9.37903 62.6098 9.95968C62.6201 12.0846 62.6387 14.2074 62.6449 16.3324C62.6449 16.7833 62.6801 17.2486 62.5808 17.679C62.527 17.9137 62.2538 18.204 62.0262 18.2596C61.8586 18.3008 61.4757 18.0393 61.4178 17.8457C61.2502 17.2775 61.1736 16.6783 61.1074 16.0853C60.9211 14.4092 60.141 13.6556 58.4441 13.5341C57.8812 13.493 57.3183 13.4333 56.7554 13.3777C56.4078 13.3447 56.2422 13.4559 56.2443 13.8451C56.2567 17.0221 56.2505 20.1992 56.2567 23.3763C56.2567 23.6172 56.3271 23.8581 56.354 24.1011C56.414 24.6467 56.743 24.9061 57.2666 24.9061C59.4539 24.9103 61.6537 25.0503 63.8059 24.5479C65.9767 24.0414 66.9638 23.1395 67.4832 20.8581C67.5991 20.3475 67.715 19.8368 67.8226 19.3241C67.8971 18.97 68.073 18.7044 68.462 18.7517C68.8656 18.8011 69.0146 19.11 69.0021 19.4909C68.9815 20.1292 68.9525 20.7654 68.9235 21.4037C68.8635 22.773 68.8076 24.1402 68.7352 25.5094C68.6959 26.2445 68.5945 26.3269 67.8329 26.3269C65.0558 26.3269 62.2807 26.3269 59.5036 26.3269C59.5036 26.3269 59.5036 26.3248 59.5036 26.3228H59.4995ZM26.0124 5.89928C25.9566 5.8931 25.9007 5.88693 25.8469 5.88075C24.6425 9.1999 23.4402 12.517 22.2047 15.9206H29.0276C28.0053 12.5232 27.0099 9.21225 26.0124 5.89928Z" fill="#FF5900"/>
<path d="M66.3015 28.7894C67.7128 28.7997 68.8386 29.9075 68.8179 31.2891C68.7931 32.8251 67.6363 33.8278 66.256 33.8155C64.7888 33.8031 63.6982 32.6871 63.7251 31.2685C63.7541 29.8189 64.8157 28.7771 66.3015 28.7894ZM64.377 31.2726C64.3687 32.3721 65.1944 33.2184 66.2829 33.2204C67.3321 33.2225 68.1288 32.4051 68.1557 31.2994C68.1805 30.2225 67.3217 29.3454 66.2456 29.3474C65.1964 29.3495 64.3852 30.1875 64.377 31.2726Z" fill="#FF5900"/>
<path d="M65.2627 31.2848C65.2627 31.153 65.244 31.0192 65.2668 30.8915C65.3227 30.5683 65.0785 30.0453 65.5607 29.9835C66.0697 29.9176 66.6326 30.0165 67.123 30.1832C67.2679 30.2327 67.3714 30.8051 67.272 31.0501C67.1644 31.3178 67.0837 31.499 67.241 31.7522C67.3093 31.8613 67.3734 32.0034 67.359 32.1208C67.3362 32.3102 67.2451 32.4914 67.1831 32.6747C67.032 32.5429 66.8582 32.4296 66.7402 32.2752C66.6533 32.164 66.6781 31.9519 66.5809 31.8655C66.4567 31.7563 66.2601 31.6925 66.0925 31.6822C66.0366 31.6801 65.9497 31.9005 65.9104 32.0302C65.8773 32.1331 65.929 32.2711 65.8814 32.3617C65.8214 32.4791 65.7014 32.5655 65.6062 32.6644C65.4965 32.5614 65.3061 32.4667 65.2937 32.3514C65.2523 31.9993 65.2792 31.641 65.2792 31.2848C65.2751 31.2848 65.2709 31.2848 65.2668 31.2848H65.2627ZM66.7588 30.8524C66.7568 30.7968 66.7526 30.7392 66.7506 30.6836C66.6016 30.6115 66.4422 30.4653 66.3098 30.488C66.1628 30.5127 66.0408 30.6898 65.9104 30.7989C66.0118 30.8977 66.1215 31.0851 66.2104 31.0748C66.3988 31.0563 66.5788 30.9327 66.7609 30.8524H66.7588Z" fill="#FF5900"/>
</g>
<defs>
<clipPath id="clip0_218_11389">
<rect width="69" height="36" fill="white"/>
</clipPath>
</defs>
</svg>
