<?xml version="1.0" encoding="UTF-8"?>
<svg id="Capa_2" data-name="Capa 2" xmlns="http://www.w3.org/2000/svg" viewBox="0 0 432.53 139.71">
  <defs>
    <style>
      .cls-1 {
        fill: #ffffff;
      }
    </style>
  </defs>
  <g id="Capa_1-2" data-name="Capa 1">
    <g>
      <g>
        <path class="cls-1" d="M59.77,41.99l5.62-16.45,5.62,16.45h-11.23ZM85.08,56.52l-11.03-31.06h5.75v-8.59h-28.81v8.59h5.75l-11.03,31.06h-4.49v8.59h18.7v-8.59h-5.02l2.25-6.74h16.52l2.25,6.74h-5.02v8.59h18.7v-8.59h-4.49Z"/>
        <path class="cls-1" d="M313.55,41.99l5.62-16.45,5.62,16.45h-11.23ZM338.86,56.52l-11.03-31.06h5.75v-8.59h-28.81v8.59h5.75l-11.03,31.06h-4.49v8.59h18.7v-8.59h-5.02l2.25-6.74h16.52l2.25,6.74h-5.02v8.59h18.7v-8.59h-4.49Z"/>
        <polygon class="cls-1" points="94.07 56.46 98.83 56.46 98.83 25.47 94.07 25.47 94.07 16.88 108.74 16.88 129.76 49.78 129.76 25.47 124.8 25.47 124.8 16.88 143.37 16.88 143.37 25.47 138.61 25.47 138.61 65.11 129.49 65.11 107.82 31.08 107.82 56.46 112.77 56.46 112.77 65.11 94.07 65.11 94.07 56.46"/>
        <polygon class="cls-1" points="195.98 56.46 200.74 56.46 200.74 25.47 195.98 25.47 195.98 16.88 214.95 16.88 214.95 25.47 209.99 25.47 209.99 36.5 228.76 36.5 228.76 25.47 223.8 25.47 223.8 16.88 242.7 16.88 242.7 25.47 237.94 25.47 237.94 56.46 242.7 56.46 242.7 65.11 223.8 65.11 223.8 56.46 228.76 56.46 228.76 44.96 209.99 44.96 209.99 56.46 214.95 56.46 214.95 65.11 195.98 65.11 195.98 56.46"/>
        <g>
          <path class="cls-1" d="M251.83,46.41v-20.94h-4.63v-8.59h19.03v8.59h-4.96v21.08c0,6.01,3.9,10.17,9.78,10.17s9.85-4.03,9.85-10.17v-21.08h-4.89v-8.59h18.96v8.59h-4.63v20.94c0,12.49-7.47,19.36-19.29,19.36s-19.23-7.14-19.23-19.36"/>
          <path class="cls-1" d="M344.48,41c0-14.08,10.57-24.78,23.46-24.78,6.87,0,11.43,2.58,13.35,7.4v-6.74h8.79v17.64h-8.52c-1.45-5.94-5.55-9.25-12.75-9.25-8.66,0-14.73,6.94-14.73,15.73s6.28,15.46,15.07,15.46c6.61,0,11.3-3.63,13.68-8.85l8.52,4.56c-4.1,8.06-12.03,13.61-22.14,13.61-14.54,0-24.71-11.1-24.71-24.78"/>
        </g>
        <path class="cls-1" d="M161.68,41.99l5.62-16.45,5.62,16.45h-11.23ZM186.99,56.52l-11.03-31.06h5.75v-8.59h-28.81v8.59h5.75l-11.03,31.06h-4.49v8.59h18.7v-8.59h-5.02l2.25-6.74h16.52l2.25,6.74h-5.02v8.59h18.7v-8.59h-4.49Z"/>
        <polygon class="cls-1" points="161.65 12.36 169.34 0 181.27 0 170.34 12.36 161.65 12.36"/>
      </g>
      <g>
        <g>
          <path class="cls-1" d="M31.77,127.06l-8.21-8.47,6.62-6.16,8.07,8.27c1.26-2.25,1.92-4.9,1.92-7.74,0-8.67-6.75-15.89-15.49-15.89s-15.36,7.21-15.36,15.89,6.62,15.75,15.36,15.75c2.58,0,4.96-.6,7.08-1.66M0,112.97c0-13.7,10.99-24.82,24.69-24.82s24.82,11.12,24.82,24.82c0,5.29-1.85,10.26-4.9,14.36l6.02,6.16-6.62,6.22-5.96-6.16c-3.97,2.65-8.67,4.24-13.37,4.24-13.7,0-24.69-11.12-24.69-24.82"/>
          <path class="cls-1" d="M57.65,118.39v-20.98h-4.63v-8.6h19.06v8.6h-4.96v21.11c0,6.02,3.91,10.19,9.8,10.19s9.86-4.04,9.86-10.19v-21.11h-4.9v-8.6h19v8.6h-4.63v20.98c0,12.51-7.48,19.39-19.33,19.39s-19.26-7.15-19.26-19.39"/>
        </g>
        <polygon class="cls-1" points="105.3 128.45 110.14 128.45 110.14 97.41 105.3 97.41 105.3 88.81 143.96 88.81 143.96 104.23 135.02 104.23 135.02 97.34 119.34 97.34 119.34 108.33 132.57 108.33 132.57 117 119.34 117 119.34 128.45 135.02 128.45 135.02 121.44 143.96 121.44 143.96 137.12 105.3 137.12 105.3 128.45"/>
        <path class="cls-1" d="M163.09,97.41v13.3h10.13c6.16,0,8.87-2.71,8.87-6.82,0-4.37-2.71-6.49-8.8-6.49h-10.19ZM149.45,128.45h4.77v-31.04h-4.77v-8.6h24.56c11.32,0,17.61,6.16,17.61,15.02,0,6.75-3.91,11.58-9.99,13.64l6.09,10.99h5.56v8.67h-11.32l-9.53-18.27h-9.33v9.6h5.23v8.67h-18.86v-8.67Z"/>
        <path class="cls-1" d="M221.99,73.58h9.33l-9.99,11.32h-6.88l7.55-11.32ZM197.83,128.45h4.83v-31.04h-4.83v-8.6h38.65v15.42h-8.94v-6.88h-15.69v10.99h13.24v8.67h-13.24v11.45h15.69v-7.02h8.94v15.69h-38.65v-8.67Z"/>
        <polygon class="cls-1" points="251.51 128.45 258.26 128.45 258.26 96.82 250.78 96.82 250.78 104.63 242.11 104.63 242.11 88.81 283.68 88.81 283.68 104.63 275.07 104.63 275.07 96.82 267.53 96.82 267.53 128.45 274.28 128.45 274.28 137.12 251.51 137.12 251.51 128.45"/>
        <path class="cls-1" d="M312.2,113.96l-5.63-16.48-5.63,16.48h11.25ZM282.35,128.52h4.5l11.05-31.11h-5.76v-8.6h28.79v8.6h-5.63l11.05,31.11h4.57v8.6h-18.73v-8.6h4.9l-2.25-6.75h-16.55l-2.25,6.75h5.03v8.6h-18.73v-8.6Z"/>
        <g>
          <path class="cls-1" d="M348.94,97.41v13.3h10.13c6.16,0,8.87-2.71,8.87-6.82,0-4.37-2.71-6.49-8.8-6.49h-10.19ZM335.3,128.45h4.77v-31.04h-4.77v-8.6h24.56c11.32,0,17.61,6.16,17.61,15.02,0,6.75-3.91,11.58-9.99,13.64l6.09,10.99h5.56v8.67h-11.32l-9.53-18.27h-9.33v9.6h5.23v8.67h-18.86v-8.67Z"/>
          <path class="cls-1" d="M423,112.97c0-8.54-6.62-15.62-15.29-15.62s-15.16,7.08-15.16,15.62,6.55,15.55,15.16,15.55,15.29-7.08,15.29-15.55M383.02,112.97c0-13.7,10.99-24.82,24.69-24.82s24.82,11.12,24.82,24.82-10.99,24.82-24.82,24.82-24.69-11.12-24.69-24.82"/>
        </g>
      </g>
    </g>
  </g>
</svg>