<?xml version="1.0" encoding="UTF-8"?>
<svg id="Capa_1" xmlns="http://www.w3.org/2000/svg" version="1.1" viewBox="0 0 564.79 167.68">
  <!-- Generator: Adobe Illustrator 29.6.1, SVG Export Plug-In . SVG Version: 2.1.1 Build 9)  -->
  <defs>
    <style>
      .st0 {
        fill: #ffffff;
      }
    </style>
  </defs>
  <path class="st0" d="M14.73,94.2c-.73.29-1.45.26-2.17-.06-.71-.32-1.2-.84-1.48-1.57-.29-.71-.26-1.43.05-2.16.33-.72.84-1.21,1.57-1.49.71-.27,1.44-.25,2.16.06.72.31,1.22.83,1.51,1.57.28.73.26,1.45-.07,2.17-.33.72-.84,1.21-1.56,1.49M144,88.92c.72.29,1.25.77,1.57,1.5.31.72.33,1.45.05,2.16-.27.73-.77,1.24-1.49,1.56-.72.32-1.45.35-2.17.06-.72-.27-1.24-.77-1.56-1.48-.33-.71-.34-1.44-.08-2.17.29-.73.79-1.25,1.51-1.57.72-.31,1.43-.33,2.16-.06"/>
  <path class="st0" d="M60.38,52.99l22.27,25.48,4.91-4.15-22.65-25.48-4.53,4.14ZM67.37,46.77l22.27,25.47,4.91-4.15-22.65-25.48-4.53,4.15ZM74.35,40.16l22.27,25.48,4.9-4.16-22.65-25.48-4.52,4.15Z"/>
  <path class="st0" d="M55.48,99.33l22.26,25.47,4.91-4.14-22.66-25.48-4.52,4.15ZM62.45,93.1l22.26,25.48,4.92-4.16-22.65-25.47-4.53,4.15ZM69.42,86.5l22.28,25.48,4.91-4.15-22.65-25.48-4.54,4.15Z"/>
  <path class="st0" d="M105.76,61.67l-25.49,22.27,4.16,4.9,25.48-22.65-4.15-4.53ZM111.99,68.65l-25.48,22.27,4.16,4.9,25.47-22.65-4.15-4.52ZM118.6,75.63l-25.48,22.27,4.14,4.91,25.48-22.65-4.15-4.53Z"/>
  <path class="st0" d="M59.52,57.32l-25.48,22.27,4.17,4.9,25.48-22.65-4.17-4.53ZM65.76,64.31l-25.48,22.27,4.16,4.91,25.48-22.65-4.15-4.53ZM72.36,71.29l-25.48,22.26,4.15,4.91,25.49-22.65-4.15-4.53Z"/>
  <path class="st0" d="M19.54,80.4c0-1.59-.42-2.81-1.24-3.63-.83-.83-2.21-1.23-4.13-1.23-.7,0-1.39,0-2.03-.02-.65-.03-1.23-.04-1.76-.07-.54-.03-1.01-.04-1.41-.06-.41-.03-.73-.05-.98-.07.02.14.05.29.06.41,0,.13.02.27.02.41,0,.12-.01.25-.02.4,0,.14-.04.29-.06.44.75-.04,1.52-.07,2.28-.1.74-.02,1.5-.03,2.27-.03s1.51.02,2.21.07c.71.04,1.34.16,1.88.36.55.18.98.47,1.31.84.33.38.5.89.5,1.55,0,.53-.06,1.01-.17,1.41-.11.41-.33.75-.66,1.04-.33.28-.81.49-1.44.63-.61.14-1.42.21-2.4.21s-1.9,0-2.81-.03c-.92-.02-1.91-.08-2.98-.2.02.22.05.45.06.68,0,.23.02.46.02.68s-.01.44-.02.68c0,.22-.04.45-.06.68.27-.02.7-.04,1.24-.06.54,0,1.26,0,2.15,0,.29,0,.58,0,.86,0h.86c.3,0,.62,0,.97.01h1.17c.8,0,1.44-.12,2-.37.54-.27.98-.62,1.32-1.08.36-.45.59-.98.73-1.58.16-.62.25-1.28.25-1.98"/>
  <path class="st0" d="M11.65,70.7c.82.12,1.68.28,2.58.46.89.16,1.71.32,2.47.49.77.15,1.4.29,1.92.41.52.11.84.19.92.22.02-.25.04-.5.08-.76.03-.12.04-.24.05-.37.03-.13.06-.26.1-.38-.12-.01-.28-.02-.48-.04-.21-.02-.47-.05-.78-.09-.33-.04-.71-.09-1.16-.15-.46-.07-1-.16-1.67-.26l-1.89-.3c-.32-.05-.64-.1-.96-.15-.3-.06-.62-.12-.94-.18,3.04-2.08,6.04-4.04,9-5.87.01-.19.03-.4.07-.64.04-.23.08-.45.14-.66l-1.96-.31c-.77-.12-1.51-.24-2.19-.35-.7-.12-1.4-.25-2.1-.38-.7-.13-1.45-.28-2.24-.43-.8-.16-1.69-.34-2.67-.55,0,.31,0,.56-.04.74-.01.18-.08.43-.19.72.12,0,.33.01.64.05.32.03.69.08,1.13.15.43.06.91.13,1.43.21.51.08,1.04.15,1.58.24l1.57.25,1.42.23c-1.5,1.01-2.99,2-4.45,2.95-1.44.95-2.93,1.91-4.42,2.89,0,.32,0,.57-.03.75-.04.19-.1.43-.21.72.38.05.85.1,1.36.16.51.07,1.15.16,1.9.28"/>
  <path class="st0" d="M15.57,56.98l2.15.66c.87.26,1.63.51,2.33.74.66.22,1.3.45,1.95.7.03-.18.08-.38.15-.59.06-.21.13-.44.21-.71.08-.26.16-.5.21-.71.07-.21.14-.41.22-.58-.66-.16-1.35-.33-2.03-.51-.68-.19-1.46-.41-2.33-.68l-2.15-.66c-.87-.26-1.63-.51-2.3-.74-.67-.23-1.34-.47-2.02-.72-.03.18-.08.39-.12.6-.06.22-.12.45-.2.72-.09.26-.16.5-.23.71-.08.2-.17.39-.24.56.69.16,1.38.34,2.08.52.67.19,1.46.41,2.32.68"/>
  <path class="st0" d="M23.14,47.69c-.73-.07-1.49-.15-2.25-.21-.76-.07-1.51-.16-2.25-.24-.76-.08-1.5-.17-2.22-.25-.7-.09-1.38-.19-2.02-.29-.09.23-.17.46-.25.68-.09.22-.2.44-.3.66-.12.22-.23.43-.34.66-.12.21-.25.42-.39.64.46.03,1,.06,1.63.1.64.04,1.34.09,2.09.15.73.04,1.49.11,2.28.16.79.06,1.56.11,2.3.19.75.06,1.46.13,2.13.2.68.06,1.24.11,1.71.15.07-.22.16-.43.28-.67.12-.24.24-.45.34-.64-.68-.69-1.41-1.45-2.18-2.28-.77-.82-1.54-1.65-2.27-2.48-.73-.82-1.42-1.61-2.08-2.35-.64-.74-1.2-1.38-1.65-1.91-.08.27-.17.5-.26.69-.08.19-.21.39-.38.61.97.95,1.99,1.99,3.02,3.09,1.03,1.1,2.04,2.21,3.06,3.34"/>
  <path class="st0" d="M23.59,39.15l1.8,1.35c.73.55,1.37,1.05,1.92,1.5.56.44,1.07.88,1.6,1.33.04-.07.1-.16.17-.27.06-.11.18-.26.32-.45.16-.2.36-.46.59-.79.26-.34.58-.77.99-1.3.45-.61.8-1.08,1.06-1.42.28-.34.51-.63.7-.86-.08-.02-.14-.06-.24-.11-.07-.05-.19-.13-.34-.23-.13-.1-.24-.2-.32-.26-.07-.07-.14-.15-.23-.24-.33.56-.65,1.1-1.01,1.61-.35.52-.72,1.03-1.09,1.53-.53-.37-1.1-.77-1.67-1.2-.29-.21-.57-.42-.84-.63-.27-.22-.56-.44-.84-.65.75-.99,1.55-1.96,2.37-2.9-.15-.09-.27-.15-.35-.19-.09-.05-.17-.1-.24-.15-.07-.07-.15-.13-.23-.2-.08-.07-.17-.18-.3-.31-.36.51-.69,1.01-1.03,1.49-.32.47-.7,1-1.13,1.57-.48-.36-.95-.73-1.43-1.08-.45-.37-.93-.75-1.39-1.15.08-.09.22-.26.39-.48.18-.23.38-.46.61-.73.23-.28.48-.56.71-.84.25-.29.49-.56.68-.8-.1-.06-.19-.1-.29-.15-.08-.05-.2-.13-.33-.23-.23-.18-.41-.33-.52-.47-.11.19-.34.54-.72,1.06-.38.51-.79,1.09-1.3,1.74-.29.39-.59.78-.89,1.15-.32.38-.62.76-.93,1.14.61.4,1.19.8,1.78,1.21.58.4,1.22.88,1.95,1.42"/>
  <path class="st0" d="M32.92,30.61l5.66,1.88c.18-.18.35-.36.54-.52.18-.16.37-.33.54-.51.2-.17.39-.33.57-.5.17-.15.36-.32.56-.47-1.05-.27-2.11-.55-3.19-.83-1.06-.29-2.11-.61-3.14-.94.48-.71.71-1.4.7-2.07-.02-.68-.29-1.3-.83-1.9-.33-.36-.69-.62-1.07-.74-.37-.14-.77-.2-1.18-.16-.16.02-.34.07-.51.13-.16.05-.34.13-.54.24-.18.11-.4.25-.62.43-.24.18-.51.42-.82.7-.42.37-.76.7-1.02.98-.26.26-.5.5-.72.7-.21.19-.39.34-.56.48-.18.14-.35.25-.5.36.51.5,1.02,1.01,1.52,1.53.48.51,1.03,1.1,1.64,1.78l1.5,1.66c.61.68,1.14,1.3,1.59,1.84.46.54.91,1.08,1.32,1.61.13-.14.27-.29.44-.43.16-.14.35-.31.54-.5.22-.18.39-.34.55-.49.17-.15.32-.27.47-.38-.48-.48-.97-.98-1.45-1.48-.48-.52-1.04-1.11-1.65-1.79l-.46-.51.12-.1ZM32.7,26.72c.54.58.79,1.15.78,1.7-.03.55-.32,1.06-.86,1.55-.04.04-.08.07-.13.11-.05.04-.11.06-.16.1-1.01-1.11-2-2.24-2.96-3.37.33-.3.63-.54.89-.72.27-.19.54-.29.78-.31.25-.04.52.02.78.16.26.15.56.4.88.76"/>
  <path class="st0" d="M42.31,19.24l.21-.13c-.09-.37-.15-.67-.21-.91-.06-.25-.11-.51-.14-.77-.4-.06-.83-.04-1.29.06-.47.1-.94.29-1.46.59-.43.24-.8.55-1.12.91-.31.36-.52.74-.68,1.17-.14.43-.19.88-.16,1.37.06.48.23.96.51,1.46.31.54.68.93,1.09,1.16.41.22.84.36,1.29.42.45.06.91.06,1.38.03.47-.05.91-.09,1.33-.09.41,0,.79.04,1.13.14.33.11.61.34.82.71.24.4.29.82.18,1.27-.1.44-.44.82-1,1.16-.29.16-.56.28-.86.33-.25.05-.53.05-.77,0-.25-.05-.47-.14-.68-.26-.22-.13-.4-.29-.56-.48l-.27.16c.13.35.25.68.34.99.1.32.19.67.3,1.06.31.04.68,0,1.14-.13.47-.13.98-.34,1.5-.62.56-.34,1.05-.71,1.41-1.11.37-.43.65-.87.83-1.34.16-.47.22-.96.19-1.46-.06-.51-.22-.99-.5-1.47-.29-.54-.67-.92-1.08-1.14-.41-.23-.84-.38-1.31-.43-.47-.06-.93-.06-1.4-.01-.47.04-.92.07-1.35.07-.43,0-.82-.04-1.16-.13-.34-.11-.61-.34-.81-.69-.2-.35-.23-.73-.1-1.14.12-.42.4-.75.85-1.01.84-.49,1.65-.41,2.43.24"/>
  <path class="st0" d="M47.89,19.18l.85,2.08c.34.84.64,1.6.89,2.27.23.65.47,1.31.68,1.97.16-.1.35-.19.55-.26.2-.08.43-.17.69-.28.26-.11.49-.2.69-.28.22-.08.4-.15.59-.2-.31-.61-.59-1.25-.88-1.89-.29-.65-.61-1.4-.94-2.25l-.84-2.08c-.34-.85-.64-1.6-.88-2.26-.24-.67-.48-1.34-.7-2.02-.18.09-.36.18-.55.29-.2.09-.43.19-.69.29-.24.1-.47.19-.69.26-.21.06-.4.11-.59.16.3.65.6,1.3.89,1.95.3.65.61,1.39.94,2.23"/>
  <path class="st0" d="M54.41,16.66l.51,2.18c.21.89.39,1.69.52,2.38.13.69.26,1.38.37,2.05.18-.06.36-.12.58-.17.22-.05.46-.11.72-.16.41-.1.91-.2,1.48-.33.57-.12,1.26-.28,2.06-.46.77-.17,1.43-.47,2.04-.89.61-.43,1.11-.95,1.5-1.57.4-.63.65-1.34.78-2.13.14-.78.09-1.62-.11-2.51-.22-1.02-.57-1.83-1.04-2.42-.44-.61-1-1.05-1.63-1.32-.64-.27-1.35-.4-2.15-.39-.79,0-1.65.11-2.56.33-.71.16-1.28.3-1.71.44-.43.12-.83.23-1.18.31-.28.06-.52.1-.73.15-.22.03-.42.05-.61.07.2.68.4,1.37.58,2.07.17.68.37,1.47.57,2.35M57.38,18.66l-.66-2.86-.19-.81-.22-.96c-.08-.33-.14-.61-.21-.87-.04-.26-.07-.42-.09-.5.25-.08.48-.15.71-.21.24-.08.56-.17.95-.25.54-.13,1.08-.14,1.57-.04.5.09.94.29,1.35.59.4.29.75.67,1.05,1.16.3.48.53,1.06.69,1.72.38,1.67.32,3-.19,3.99-.52.99-1.4,1.62-2.6,1.9-.33.07-.6.14-.84.18-.22.04-.43.07-.58.1-.02-.08-.06-.24-.13-.5-.06-.25-.12-.53-.18-.84l-.23-.97-.19-.82Z"/>
  <path class="st0" d="M77.35,19.95c-.27,0-.52,0-.76.04-.24.02-.46.04-.69.05-.23.02-.47.04-.7.06-.23.02-.46.06-.7.09-.21-.52-.44-1.05-.68-1.59-.24-.54-.48-1.08-.73-1.62-.36.01-.71.04-1.06.07-.34.01-.69.04-1.05.07-.28.04-.56.06-.86.1-.28.03-.57.05-.85.09-.17.58-.32,1.15-.46,1.72-.15.57-.26,1.14-.37,1.69-.13-.01-.26-.01-.4,0-.11,0-.24.03-.38.03-.13.01-.26.03-.39.04-.14,0-.28.04-.43.07.11-.3.24-.7.43-1.23.17-.53.36-1.11.57-1.78.21-.65.43-1.35.65-2.11.25-.75.49-1.51.72-2.29.24-.77.46-1.53.69-2.28.24-.75.44-1.45.63-2.09.11.02.22.03.31.04.11,0,.2,0,.32,0,.1-.01.2-.03.3-.05.1-.03.2-.06.31-.09.43.9.89,1.87,1.39,2.89.49,1.03.98,2.04,1.48,3.04.5.98.98,1.91,1.43,2.8.48.89.89,1.63,1.27,2.25M70.82,12.26c-.23.69-.43,1.36-.64,2.02-.19.66-.38,1.33-.57,2.02l3-.26c-.3-.64-.6-1.28-.89-1.89-.28-.62-.59-1.25-.91-1.89"/>
  <path class="st0" d="M79.67,13.27l-.15,2.23c-.07.91-.14,1.72-.2,2.43-.08.7-.16,1.39-.25,2.07.18,0,.39,0,.61,0,.22.02.46.03.74.05.42.03.93.07,1.51.12.58.05,1.29.11,2.11.17.78.04,1.51-.04,2.22-.26.72-.22,1.34-.58,1.89-1.05.56-.49,1.02-1.09,1.37-1.81.36-.72.56-1.52.64-2.44.07-1.04-.02-1.91-.29-2.61-.25-.71-.65-1.29-1.17-1.73-.54-.45-1.19-.78-1.96-1-.75-.23-1.59-.38-2.54-.44-.72-.06-1.31-.08-1.75-.08-.45,0-.86-.02-1.23-.05-.29-.02-.51-.04-.73-.06-.23-.04-.43-.08-.62-.11,0,.72-.01,1.43-.04,2.15-.03.7-.08,1.51-.15,2.42M81.92,16.04l.21-2.93.06-.82.07-.99c.03-.33.04-.62.06-.89.02-.26.05-.43.06-.51.24,0,.49,0,.74,0,.25,0,.58,0,.97.03.58.04,1.09.19,1.52.43.45.23.82.54,1.12.95.31.39.53.86.67,1.42.15.55.21,1.16.17,1.84-.13,1.71-.58,2.96-1.37,3.75-.77.8-1.78,1.15-3.02,1.06-.34-.02-.63-.05-.86-.08-.22-.02-.42-.04-.58-.07,0-.07,0-.24,0-.51.02-.26.04-.55.07-.87l.07-.99.05-.84Z"/>
  <path class="st0" d="M105.78,24.62c-.24-.09-.47-.17-.71-.24-.22-.07-.45-.14-.66-.2-.24-.07-.46-.13-.69-.19-.22-.06-.45-.12-.67-.16-.02-.57-.05-1.15-.06-1.73-.03-.59-.07-1.18-.11-1.78-.34-.11-.68-.21-1.01-.3-.33-.11-.68-.22-1.01-.31-.28-.08-.55-.15-.82-.22-.29-.08-.57-.15-.83-.22-.36.47-.72.96-1.05,1.45-.34.48-.65.96-.95,1.44-.12-.05-.25-.11-.38-.13-.1-.04-.23-.08-.37-.11-.11-.04-.25-.07-.37-.11-.14-.03-.27-.06-.43-.09.22-.23.49-.57.84-.99.34-.43.73-.91,1.16-1.44.44-.54.89-1.13,1.37-1.74.5-.62,1-1.26,1.49-1.89.5-.64.98-1.26,1.46-1.88.48-.62.93-1.19,1.34-1.73.09.06.19.11.28.15.09.03.19.07.3.1.1.03.2.05.3.07.09,0,.2.01.31.02.07,1,.17,2.06.25,3.19.1,1.14.2,2.25.31,3.37.1,1.09.22,2.13.33,3.12.12,1,.24,1.85.36,2.55M102.45,15.11c-.46.55-.9,1.1-1.32,1.66-.42.54-.84,1.11-1.26,1.69l2.9.83c-.05-.71-.11-1.4-.16-2.09-.04-.69-.1-1.38-.17-2.08"/>
  <path class="st0" d="M111.96,18.68c-.41.71-.87,1.47-1.36,2.25-.47.76-.91,1.48-1.34,2.13-.41.65-.77,1.2-1.06,1.65-.3.45-.47.71-.54.78.22.11.44.22.67.35.09.06.21.12.32.19.11.07.22.14.33.22.04-.11.11-.25.21-.43.09-.19.22-.42.36-.7.15-.28.34-.62.57-1.03.22-.4.5-.89.84-1.45l.95-1.66c.17-.29.32-.57.5-.85.17-.27.33-.54.5-.81.87,3.59,1.63,7.09,2.26,10.51.16.07.35.17.57.29.21.11.39.24.57.36l.98-1.71c.4-.69.77-1.33,1.12-1.93.37-.6.73-1.21,1.1-1.82.38-.61.79-1.25,1.21-1.92.43-.69.92-1.45,1.48-2.29-.3-.11-.53-.2-.68-.3-.16-.09-.37-.24-.6-.44-.04.11-.13.31-.28.58-.14.29-.33.63-.54,1.01-.21.39-.45.81-.71,1.26-.26.46-.5.92-.77,1.38l-.8,1.38-.71,1.24c-.41-1.76-.79-3.5-1.17-5.2-.36-1.69-.74-3.41-1.12-5.17-.28-.11-.52-.2-.68-.29-.16-.1-.36-.25-.6-.45-.18.35-.39.75-.63,1.21-.25.45-.55,1.01-.93,1.67"/>
  <path class="st0" d="M130.53,27.87c-.09-.06-.18-.12-.26-.17-.09-.07-.16-.14-.24-.21-.07-.07-.15-.16-.21-.23-.05-.09-.12-.18-.18-.27-.62.27-1.28.56-2,.87-.72.31-1.45.62-2.18.93-.75.32-1.48.63-2.22.94-.72.31-1.4.58-2.04.85-.65.27-1.23.5-1.73.7-.51.2-.92.36-1.2.47.12.08.23.18.32.27.1.09.19.18.29.28.09.1.17.18.25.27.11.1.19.2.26.3.49-.28,1.01-.54,1.52-.81.53-.26,1.07-.51,1.62-.75.22.19.42.39.62.59.21.19.41.39.63.59.24.25.48.5.74.76.24.25.49.5.73.76-.24.54-.51,1.08-.77,1.61-.26.53-.52,1.04-.77,1.55.17.15.34.3.51.47.17.17.34.33.49.5.19.16.33.33.5.49.17.17.34.36.51.56.23-.68.54-1.48.91-2.4.38-.93.79-1.89,1.23-2.9.44-1.03.9-2.05,1.36-3.09.47-1.03.94-2.01,1.34-2.91M125.64,33.05l-2.12-2.14c.65-.3,1.28-.59,1.92-.86.63-.28,1.29-.56,1.96-.82-.27.65-.56,1.29-.86,1.92-.29.62-.57,1.26-.89,1.9M129.5,26.03l.64.64c.8.2,1.43.35,1.9.45.48.1.83.16,1.09.19.26.02.44.02.53-.02.1-.04.18-.1.27-.17.13-.13.2-.3.21-.51.03-.19-.05-.39-.24-.57-.09-.08-.18-.15-.31-.19-.1-.05-.3-.08-.59-.08-.29,0-.71,0-1.26.04-.54.05-1.29.13-2.26.21"/>
  <path class="st0" d="M135.54,44.55l-.8.48c-.8.47-1.48.88-2.1,1.23-.63.34-1.23.67-1.84.99.11.14.22.32.33.5.11.19.25.4.39.64.14.24.27.45.38.64.12.19.21.36.29.54.57-.39,1.13-.77,1.73-1.16.61-.38,1.29-.81,2.08-1.28l1.91-1.15c.79-.47,1.48-.88,2.1-1.23.63-.35,1.25-.69,1.89-1.01-.11-.15-.24-.32-.37-.49-.11-.18-.26-.39-.39-.63-.14-.23-.28-.45-.36-.64-.1-.21-.18-.39-.27-.56-.59.4-1.19.8-1.76,1.18-.59.37-1.27.8-2.06,1.27-.17-.27-.36-.56-.57-.87-.18-.32-.44-.73-.73-1.25-.3-.51-.57-.94-.77-1.28-.2-.35-.37-.65-.5-.9.77-.47,1.46-.87,2.06-1.22.62-.34,1.24-.67,1.89-.99-.12-.15-.24-.32-.37-.49-.11-.19-.25-.39-.4-.63-.13-.23-.26-.44-.37-.65-.09-.2-.18-.38-.25-.56-.6.41-1.18.81-1.78,1.19-.61.38-1.29.81-2.08,1.28l-1.91,1.15c-.77.47-1.48.88-2.1,1.23-.62.34-1.23.67-1.84.99.12.14.24.31.34.5.12.19.25.4.38.64.14.23.27.45.4.64.11.18.19.37.28.54.56-.39,1.12-.77,1.73-1.15.6-.38,1.3-.82,2.06-1.28l.82-.48c.22.34.47.69.69,1.05.22.35.45.7.66,1.06.22.36.41.72.62,1.1.2.36.41.72.61,1.09"/>
  <path class="st0" d="M134.72,57.53c.47,1.52,1.23,2.56,2.25,3.11,1.03.54,2.46.54,4.29-.02.69-.21,1.33-.41,1.94-.58.62-.17,1.2-.32,1.72-.46.52-.13.97-.25,1.37-.35.4-.1.72-.18.95-.23-.07-.12-.12-.25-.18-.37-.06-.13-.1-.26-.15-.39-.04-.12-.07-.24-.11-.38-.02-.14-.04-.29-.06-.44-.72.26-1.44.51-2.15.75-.71.24-1.43.47-2.15.7-.73.22-1.45.42-2.14.59-.69.16-1.33.23-1.9.2-.58-.02-1.07-.15-1.51-.42-.43-.26-.74-.71-.94-1.34-.16-.51-.23-.98-.25-1.4-.01-.42.08-.82.32-1.18.26-.36.64-.7,1.2-1.02.53-.32,1.3-.62,2.25-.91.91-.28,1.79-.53,2.67-.78.88-.25,1.86-.48,2.91-.68-.09-.21-.18-.42-.25-.63-.08-.22-.15-.43-.22-.64-.07-.2-.12-.43-.18-.65-.04-.22-.1-.45-.14-.66-.26.1-.65.24-1.16.4-.53.17-1.21.39-2.07.65-.28.09-.55.16-.82.23-.26.08-.54.16-.82.25-.29.08-.59.18-.94.27-.33.1-.7.21-1.12.34-.74.23-1.34.55-1.79.94-.43.41-.76.89-.95,1.42-.2.53-.28,1.11-.25,1.72.04.63.16,1.29.36,1.96"/>
  <path class="st0" d="M138.08,74.74c-.02-.26-.04-.51-.06-.76-.02-.23-.06-.46-.09-.68-.02-.23-.06-.47-.07-.71-.03-.22-.08-.46-.13-.68.51-.24,1.03-.49,1.58-.74.53-.25,1.06-.51,1.59-.8-.05-.35-.07-.7-.11-1.05-.04-.35-.07-.7-.12-1.05-.03-.29-.07-.57-.11-.85-.05-.28-.09-.57-.13-.85-.58-.15-1.16-.28-1.75-.4-.57-.11-1.15-.22-1.69-.31,0-.13,0-.26-.01-.39-.01-.12-.03-.25-.05-.38-.02-.13-.04-.26-.05-.39-.01-.14-.04-.28-.08-.43.3.1.7.22,1.23.38.53.16,1.13.33,1.8.51.65.18,1.38.39,2.13.59.75.22,1.53.43,2.31.64.77.21,1.55.41,2.29.61.76.21,1.46.4,2.12.55,0,.11-.02.22-.02.32s0,.21.02.32c.02.11.02.21.05.3.04.1.08.2.11.31-.88.47-1.82.96-2.84,1.48-1.01.53-1.98,1.06-2.98,1.59-.96.53-1.87,1.04-2.74,1.53-.85.5-1.6.94-2.19,1.33M145.52,67.94c-.68-.2-1.37-.39-2.04-.56-.66-.17-1.33-.34-2.03-.5l.36,3c.65-.33,1.25-.65,1.85-.96.62-.31,1.24-.63,1.86-.98"/>
  <path class="st0" d="M139.88,85.37l.14-.22c-.18-.17-.35-.39-.51-.62-.15-.23-.29-.48-.4-.74-.09-.26-.17-.53-.25-.81-.05-.27-.07-.54-.07-.81,0-.47.09-.94.25-1.41.18-.46.47-.88.84-1.25.38-.37.86-.67,1.46-.89.61-.23,1.33-.35,2.18-.35s1.64.11,2.26.33c.64.23,1.15.53,1.55.89.42.36.72.76.91,1.2.2.45.3.9.3,1.34,0,.58-.12,1.11-.34,1.55-.23.44-.61.87-1.13,1.29v.23c.29.03.57.06.84.12.29.07.56.15.85.26.1-.18.21-.42.31-.69.1-.27.18-.54.25-.84.08-.3.13-.61.18-.93.04-.32.06-.61.06-.9,0-.87-.11-1.7-.34-2.5-.24-.79-.6-1.48-1.11-2.09-.49-.59-1.14-1.07-1.93-1.43-.8-.35-1.76-.53-2.91-.53-.79,0-1.51.14-2.17.41-.68.27-1.26.67-1.75,1.19-.49.53-.87,1.16-1.14,1.91-.27.76-.41,1.62-.41,2.57,0,1.35.24,2.47.68,3.37.24.02.48.07.7.13.24.06.48.14.7.23"/>
  <path class="st0" d="M11.43,103.52c.04.11.1.24.15.42.04.14.06.29.08.43,1.8.14,3.59.3,5.39.49,1.8.18,3.63.4,5.47.62-.1-.18-.16-.33-.21-.47-.03-.13-.05-.29-.05-.5-.34,0-.75-.03-1.22-.06-.46-.03-.97-.05-1.5-.1-.55-.03-1.12-.07-1.71-.1-.59-.04-1.17-.08-1.74-.13-.57-.05-1.11-.1-1.65-.15-.54-.06-1.02-.11-1.45-.16.66-.47,1.32-.94,1.98-1.41.66-.47,1.31-.93,1.97-1.38.65-.44,1.29-.87,1.91-1.29.64-.41,1.24-.8,1.82-1.16-.05-.11-.1-.23-.15-.33-.04-.11-.07-.22-.1-.32-.03-.1-.05-.21-.07-.33-.02-.11-.03-.23-.04-.36-.73.53-1.53,1.1-2.34,1.68-.83.6-1.64,1.17-2.43,1.73-.8.57-1.55,1.09-2.27,1.59-.72.51-1.34.93-1.85,1.28"/>
  <path class="st0" d="M19.74,108.53l-2.35.95c-.62.25-1.23.48-1.83.69-.58.23-1.18.44-1.76.65.1.18.19.39.28.6.09.22.17.43.23.62.55-.25,1.12-.51,1.7-.78.57-.25,1.17-.5,1.78-.74l2.37-.96c.59-.24,1.19-.47,1.78-.69.6-.21,1.21-.42,1.82-.65-.05-.1-.12-.2-.18-.29-.05-.09-.09-.19-.13-.29-.04-.1-.07-.21-.11-.3-.02-.11-.05-.22-.08-.34-.59.27-1.18.53-1.77.79-.56.25-1.14.51-1.75.75"/>
  <path class="st0" d="M19.29,122.49l.09.17c.1-.05.24-.13.42-.24.21-.12.44-.25.73-.42.28-.16.59-.33.9-.51.33-.18.66-.37.98-.56.32-.17.62-.34.91-.51.31-.17.58-.31.79-.43.25-.13.58-.31,1.01-.54.43-.21.86-.43,1.3-.65.46-.22.87-.42,1.25-.62.4-.18.7-.33.89-.41-.13-.14-.22-.25-.27-.35-.06-.11-.11-.25-.15-.44-.75.46-1.55.94-2.41,1.43-.85.49-1.72.99-2.63,1.49l-1.78.98c.21-.59.44-1.27.75-2.07.3-.8.62-1.65.95-2.54.36-.89.69-1.79,1.05-2.7.35-.9.68-1.76.99-2.55l-.11-.2c-.29.18-.73.43-1.33.77-.6.35-1.3.74-2.13,1.2-.29.16-.62.34-.98.54-.36.19-.75.39-1.15.58-.38.2-.76.39-1.17.58-.38.2-.74.38-1.09.54-.32.16-.62.3-.86.4-.25.11-.41.18-.51.22.09.12.18.26.27.42.07.15.14.29.2.42.07-.05.19-.12.37-.24.21-.11.43-.25.68-.4.27-.15.54-.32.84-.49.31-.18.59-.35.88-.52.3-.16.58-.33.84-.48.28-.15.49-.28.68-.38.7-.39,1.27-.7,1.67-.91.4-.22.73-.39.98-.52-.63,1.68-1.27,3.38-1.91,5.07-.64,1.69-1.29,3.3-1.93,4.84"/>
  <path class="st0" d="M27.62,131.7l.73-.49v-.08c-.15-.02-.36-.05-.59-.1-.23-.04-.46-.11-.71-.21-.23-.09-.48-.21-.73-.36-.24-.15-.47-.34-.67-.58-.37-.4-.62-.84-.77-1.3-.16-.46-.19-.95-.13-1.46.08-.51.28-1.03.61-1.56.33-.54.81-1.08,1.43-1.62.63-.54,1.22-.93,1.79-1.18.58-.25,1.13-.38,1.64-.38.52,0,1,.11,1.44.33.44.22.84.52,1.18.93.21.24.37.5.47.77.12.26.18.51.23.77.03.26.04.49.04.71,0,.22-.03.41-.06.56l.07.04c.14-.08.31-.18.52-.31.21-.12.38-.2.54-.24-.11-.41-.27-.84-.5-1.29-.22-.47-.51-.91-.91-1.37-.48-.56-1.03-1-1.6-1.31-.59-.31-1.2-.49-1.85-.53-.63-.04-1.28.07-1.94.32-.65.25-1.3.64-1.92,1.19-.65.56-1.13,1.14-1.48,1.76-.33.61-.51,1.24-.57,1.86-.07.63.03,1.25.25,1.85.22.6.58,1.16,1.04,1.7.22.25.44.48.7.66.24.19.47.36.68.5.23.14.44.24.6.31.19.07.34.11.47.12"/>
  <path class="st0" d="M34.11,129.86l-1.63,1.95c-.43.51-.86.99-1.28,1.46-.43.47-.85.93-1.27,1.39.34.25.66.51.96.77.32.26.62.52.94.78.33.27.62.53.94.79.3.25.61.53.91.8.05-.09.13-.2.22-.32.04-.06.11-.11.15-.18.06-.06.12-.11.18-.15-.19-.1-.42-.23-.66-.4-.23-.17-.49-.36-.75-.55-.26-.2-.52-.42-.76-.63-.27-.22-.51-.41-.75-.61.11-.15.29-.37.51-.66.24-.27.54-.63.9-1.06l.57-.69.37-.44c.11-.12.19-.22.26-.3.07-.08.14-.15.2-.21.12.09.29.24.49.42.21.18.44.37.66.57.24.2.47.41.69.63.23.22.42.41.6.59.06-.13.15-.25.23-.37.11-.12.23-.24.34-.33-.17-.11-.35-.23-.54-.36-.16-.13-.35-.27-.58-.42-.19-.17-.42-.35-.67-.54-.25-.19-.53-.42-.83-.67.12-.15.29-.36.53-.65.24-.28.48-.57.73-.86.23-.28.45-.53.64-.74.19-.22.4-.43.62-.67.33.28.61.53.86.75.21.21.43.41.62.59.18.19.37.37.54.54.17.17.37.35.57.55.06-.13.16-.25.25-.36.08-.12.2-.23.32-.32-.32-.24-.65-.49-.96-.73-.31-.24-.62-.5-.93-.76-.31-.26-.6-.53-.91-.8-.3-.27-.6-.54-.88-.81-.39.5-.8.99-1.18,1.5-.38.5-.79,1-1.21,1.5"/>
  <path class="st0" d="M43.61,136.59l-1.2,2.25c-.31.58-.63,1.14-.94,1.69-.32.55-.63,1.09-.95,1.63.2.07.39.17.6.28.21.11.39.22.57.34.26-.56.53-1.12.81-1.69.28-.57.58-1.14.88-1.71l1.2-2.26c.31-.58.63-1.14.93-1.68.32-.55.65-1.1.98-1.67-.12-.04-.23-.07-.33-.11-.1-.04-.19-.09-.29-.14-.08-.05-.18-.1-.28-.17-.09-.07-.17-.13-.27-.21-.28.58-.55,1.17-.84,1.73-.27.56-.56,1.14-.86,1.71"/>
  <path class="st0" d="M52.48,147.51l.18.07c.04-.11.1-.26.17-.45.09-.23.19-.5.28-.79.11-.31.22-.64.34-.98.14-.35.25-.7.37-1.05.13-.34.25-.67.37-.99.13-.32.22-.61.3-.83.1-.28.23-.63.41-1.08.19-.43.35-.88.55-1.34.2-.45.37-.88.55-1.29.17-.4.29-.7.39-.9-.18-.01-.32-.03-.42-.07-.11-.04-.25-.11-.4-.22-.26.83-.55,1.71-.88,2.65-.33.94-.66,1.88-1.01,2.86l-.69,1.9c-.24-.57-.51-1.25-.81-2.05-.29-.8-.62-1.65-.94-2.54-.32-.9-.65-1.8-.98-2.71-.34-.92-.64-1.78-.93-2.58l-.2-.07c-.11.32-.27.8-.5,1.45-.22.65-.5,1.41-.83,2.3-.11.31-.25.66-.39,1.05-.15.39-.31.78-.48,1.18-.15.4-.32.81-.5,1.21-.16.41-.32.78-.46,1.13-.14.34-.29.62-.41.87-.1.24-.17.41-.23.49.16.03.31.08.48.14.17.06.31.12.44.19.01-.07.05-.22.12-.43.07-.22.15-.47.24-.75.1-.28.19-.59.3-.92.11-.33.23-.65.33-.97.12-.31.23-.62.32-.9.11-.29.19-.54.26-.73.28-.75.5-1.34.67-1.78.15-.43.3-.78.4-1.04.63,1.69,1.27,3.38,1.88,5.08.63,1.69,1.2,3.34,1.72,4.93"/>
  <path class="st0" d="M62.21,143.27l-.4,2.52c-.1.64-.22,1.28-.35,1.9-.11.61-.23,1.23-.35,1.85.22.02.42.04.64.07.22.04.45.07.64.1.22.04.44.07.65.11.22.04.43.09.65.12.39.07.78.08,1.18.06.43-.04.82-.14,1.19-.32.36-.18.67-.44.93-.78.28-.34.45-.78.53-1.33.13-.84,0-1.49-.4-1.95-.39-.45-.98-.76-1.77-.92v-.04c.7-.06,1.28-.26,1.74-.6.49-.35.79-.88.9-1.61.08-.41.05-.77-.05-1.07-.11-.29-.29-.54-.51-.74-.23-.21-.51-.36-.84-.48-.33-.11-.69-.21-1.05-.27-.25-.04-.47-.06-.72-.07-.25-.02-.49-.04-.72-.08-.23-.03-.47-.08-.7-.13-.24-.05-.47-.11-.71-.17-.07.64-.14,1.26-.22,1.89-.09.63-.16,1.27-.26,1.91M63.9,144.27l-.72-.11.18-1.1c.07-.47.16-.93.25-1.38.1-.46.18-.92.26-1.39.13,0,.28,0,.45.02.16,0,.35.02.59.06.26.04.49.1.76.2.25.08.46.21.64.37.18.16.32.37.41.64.11.26.12.59.07.99-.08.41-.2.74-.39.99-.19.24-.42.42-.68.55-.26.12-.55.18-.87.21-.31.02-.63,0-.94-.05M62.86,146.2l.24-1.5.61.1c.43.07.84.16,1.18.28.35.12.65.27.88.48.23.18.4.41.49.71.1.29.11.64.04,1.06-.06.4-.16.74-.33,1.04-.16.28-.36.52-.59.7-.23.17-.48.29-.77.35-.28.07-.55.09-.83.04-.24-.04-.48-.08-.72-.12-.24-.06-.42-.11-.58-.15.06-.51.11-1,.18-1.49.06-.5.13-.99.21-1.49"/>
  <path class="st0" d="M79.01,146.07c-.03.82-.14,1.53-.35,2.12-.21.59-.48,1.07-.85,1.46-.35.38-.75.65-1.21.82-.46.17-.95.25-1.49.23-.51-.02-1-.13-1.45-.34-.44-.2-.82-.5-1.16-.9-.31-.41-.57-.91-.73-1.52-.17-.61-.24-1.33-.21-2.14.02-.82.14-1.53.35-2.11.2-.6.48-1.09.83-1.46.35-.39.76-.67,1.22-.84.47-.17.95-.24,1.48-.23.53.02,1.02.13,1.47.34.44.2.83.51,1.15.91.33.4.57.91.74,1.51.17.6.23,1.31.21,2.14M70.24,145.76c-.03.83.07,1.6.29,2.27.22.65.56,1.23.98,1.7.43.47.95.83,1.57,1.08.61.23,1.28.38,2.02.4.75.03,1.45-.06,2.07-.26.62-.21,1.16-.53,1.63-.96.45-.45.82-.99,1.09-1.63.27-.66.41-1.41.45-2.25.03-.84-.07-1.59-.3-2.26-.22-.66-.53-1.23-.98-1.71-.43-.47-.94-.84-1.56-1.09-.61-.26-1.29-.4-2.03-.43-.73-.03-1.43.07-2.05.28-.63.22-1.17.54-1.64.98-.46.44-.82.98-1.08,1.64-.27.65-.43,1.39-.46,2.23"/>
  <path class="st0" d="M90.73,150.61l.17-.02c0-.11-.02-.27-.03-.49-.01-.23-.05-.51-.09-.82-.03-.33-.06-.68-.11-1.04-.04-.38-.07-.75-.11-1.11-.03-.37-.06-.72-.09-1.06-.03-.34-.05-.63-.08-.88-.02-.29-.04-.67-.07-1.14-.03-.48-.05-.95-.07-1.46-.02-.49-.04-.95-.07-1.39-.01-.43-.01-.76-.01-.98-.17.07-.31.1-.42.12-.12.01-.27,0-.47-.03.13.87.23,1.79.33,2.77.1.98.2,1.98.28,3.02l.18,2c-.45-.41-.98-.92-1.59-1.51-.6-.61-1.24-1.24-1.92-1.91-.68-.68-1.35-1.36-2.05-2.04-.69-.7-1.33-1.34-1.93-1.95h-.2c.05.35.09.86.15,1.54.06.69.15,1.49.22,2.45.04.32.06.7.09,1.1.02.42.05.84.07,1.28.02.43.05.87.05,1.31.03.43.04.84.07,1.22,0,.36.01.68,0,.95,0,.26,0,.45,0,.55.15-.04.31-.06.5-.08.16-.01.32-.01.47,0-.01-.08-.03-.22-.06-.44-.03-.23-.06-.49-.09-.78-.03-.29-.07-.61-.11-.96-.05-.34-.08-.68-.13-1.02-.02-.34-.05-.66-.09-.96-.03-.31-.05-.56-.07-.77-.07-.8-.13-1.42-.15-1.89-.04-.47-.06-.84-.08-1.11,1.28,1.25,2.58,2.52,3.86,3.8,1.28,1.27,2.49,2.51,3.64,3.74"/>
  <path class="st0" d="M101.92,143.03c.18.8.25,1.52.2,2.14-.05.63-.2,1.16-.44,1.63-.23.45-.55.82-.95,1.1-.4.29-.85.48-1.37.61-.51.11-1.01.13-1.5.05-.47-.08-.93-.28-1.35-.57-.41-.31-.77-.74-1.09-1.27-.33-.54-.58-1.22-.77-2.02-.17-.8-.24-1.51-.19-2.13.05-.63.19-1.18.43-1.63.24-.46.56-.83.96-1.12.41-.29.85-.49,1.37-.61.52-.11,1.01-.14,1.5-.05.48.09.94.28,1.35.59.41.3.8.72,1.1,1.27.32.53.58,1.2.76,2.01M93.36,145.01c.2.82.47,1.52.85,2.11.41.58.85,1.05,1.4,1.39.53.34,1.13.55,1.79.64.65.07,1.34.02,2.05-.14.74-.18,1.37-.43,1.94-.78.55-.36.99-.81,1.31-1.35.34-.54.55-1.17.65-1.85.09-.71.04-1.47-.15-2.29-.18-.82-.47-1.52-.87-2.1-.39-.6-.85-1.06-1.39-1.41-.53-.34-1.13-.56-1.79-.65-.65-.09-1.35-.05-2.07.12-.72.16-1.35.43-1.89.8-.57.37-1.01.83-1.33,1.38-.35.54-.56,1.17-.65,1.87-.09.69-.04,1.45.15,2.28"/>
  <path class="st0" d="M108.47,134.95l-.2.11c.32.72.65,1.5,1,2.31.32.81.66,1.64.99,2.49.33.84.66,1.68.99,2.53.31.84.62,1.64.91,2.4.11-.1.24-.18.4-.26.14-.08.28-.15.42-.2-.2-.35-.42-.8-.68-1.36-.27-.57-.55-1.17-.83-1.81-.29-.65-.57-1.29-.85-1.96-.28-.67-.54-1.29-.77-1.86h.02c1.15.84,2.29,1.68,3.41,2.5,1.12.8,2.22,1.62,3.3,2.45l.11-.06c-.19-1.44-.32-2.84-.39-4.2-.08-1.37-.14-2.76-.21-4.14l.04-.02c.76,1.06,1.47,2.1,2.15,3.14.68,1.03,1.39,2.1,2.12,3.2.08-.07.17-.13.25-.18.1-.05.19-.1.29-.15.1-.06.18-.1.28-.16.09-.05.2-.09.3-.13-.51-.67-1-1.34-1.47-2.02-.5-.69-.97-1.39-1.46-2.1-.5-.71-1.01-1.42-1.5-2.16-.5-.73-1.03-1.5-1.59-2.28l-.14.09c.03.51.05,1.05.07,1.64.03.59.06,1.18.07,1.79.05.61.09,1.2.12,1.8.02.58.06,1.12.08,1.63,0,.5.04.96.07,1.35.02.39.04.68.05.89-1.28-.88-2.52-1.76-3.73-2.6-1.2-.86-2.4-1.75-3.63-2.68"/>
  <path class="st0" d="M130.72,131.67c-.11.07-.2.15-.29.22-.07.07-.16.15-.26.24-.09.09-.18.17-.27.24-.08.07-.16.16-.24.26-.21-.12-.46-.27-.75-.44-.29-.17-.6-.34-.94-.51-.33-.18-.67-.35-1.01-.53-.35-.18-.68-.35-.99-.52-.22.18-.43.37-.65.57-.23.19-.45.39-.68.59-.21.18-.41.37-.59.57-.21.18-.41.36-.61.55.31.77.61,1.49.9,2.17.29.67.55,1.22.77,1.63-.13.09-.26.19-.4.31-.13.12-.25.24-.35.35-.62-1.78-1.24-3.53-1.87-5.27-.64-1.73-1.28-3.49-1.95-5.28l.2-.18c.54.28,1.13.6,1.77.92.62.33,1.27.65,1.92.99.65.34,1.29.67,1.93.99.64.33,1.26.63,1.8.91.56.27,1.06.51,1.51.73.45.21.77.36,1.03.46M123.19,132.24c.17-.16.35-.32.56-.48.17-.16.37-.32.54-.47.2-.17.38-.34.56-.51.18-.18.35-.35.54-.53l-3.64-1.8,1.44,3.79Z"/>
  <path class="st0" d="M128.08,124.98l2.01,1.57c.51.41,1.01.81,1.49,1.22.49.4.97.81,1.44,1.2.26-.36.5-.68.75-.99.25-.32.5-.65.78-.99.26-.33.5-.65.76-.98.25-.33.51-.65.78-.96-.15-.06-.27-.13-.35-.19-.09-.07-.21-.18-.32-.32-.33.59-.68,1.12-1.02,1.59-.35.46-.72.94-1.12,1.45-.57-.44-1.22-.93-1.96-1.49-.73-.55-1.57-1.22-2.57-1.99-.51-.41-1.01-.79-1.49-1.2-.47-.41-.96-.83-1.47-1.25-.04.11-.11.2-.16.3-.06.09-.12.17-.19.26-.07.08-.13.17-.21.25-.08.08-.18.15-.25.23.53.38,1.06.76,1.56,1.14.51.36,1.02.75,1.54,1.14"/>
  <path class="st0" d="M136.88,113.07c.27.14.56.3.88.48.32.18.63.38.92.6.31.22.58.46.81.74.25.25.43.54.56.85.11.31.17.66.16,1.03-.02.37-.14.78-.37,1.2-.25.46-.51.79-.77,1.03-.27.24-.58.4-.89.49-.31.09-.64.12-.96.08-.33-.04-.66-.12-.99-.23-.33-.11-.65-.25-.97-.41-.33-.16-.64-.33-.94-.49-.49-.26-.96-.51-1.41-.76-.45-.25-.86-.5-1.25-.72-.39-.22-.72-.43-1.03-.6-.3-.18-.55-.34-.73-.45-.02.09-.05.19-.09.29-.04.08-.06.17-.11.25-.06.1-.13.2-.19.31-.07.1-.14.2-.22.28.41.2.89.44,1.47.72.58.29,1.23.63,1.97,1.02.33.18.65.36.96.56.3.18.66.38,1.08.59,1.28.69,2.36.92,3.25.69.88-.22,1.64-.93,2.27-2.12.29-.54.46-1.07.52-1.56.05-.51,0-1-.17-1.45-.17-.46-.45-.88-.83-1.28-.38-.41-.85-.77-1.44-1.09-.48-.27-.98-.54-1.47-.82-.51-.3-1-.58-1.47-.85-.48-.28-.92-.53-1.33-.78-.41-.25-.77-.47-1.07-.66-.02.16-.06.29-.12.4-.04.08-.09.15-.13.22-.07.07-.12.14-.19.23.27.1.75.33,1.41.68.68.35,1.65.86,2.89,1.52"/>
  <path class="st0" d="M134.28,106.45l-.07.22c.73.3,1.51.62,2.32.97.81.35,1.63.71,2.46,1.09.83.38,1.65.75,2.46,1.14.81.38,1.58.74,2.32,1.09.03-.15.05-.3.1-.46.06-.17.12-.31.18-.45-.39-.12-.85-.29-1.43-.51-.58-.22-1.19-.47-1.83-.73-.66-.27-1.31-.54-1.98-.82-.67-.29-1.28-.55-1.84-.79v-.02c1.41-.19,2.82-.38,4.18-.57,1.38-.21,2.73-.38,4.1-.53l.03-.12c-1.13-.91-2.18-1.82-3.2-2.74-1-.94-2.01-1.9-3.04-2.85v-.03c1.28.24,2.53.49,3.74.76,1.22.27,2.46.55,3.74.83.03-.11.05-.21.07-.3.03-.11.07-.21.11-.31.02-.11.06-.2.09-.29.02-.11.07-.2.12-.3-.82-.14-1.64-.29-2.46-.44-.84-.16-1.67-.32-2.5-.49-.87-.16-1.72-.33-2.59-.51-.88-.18-1.78-.36-2.73-.55l-.04.17c.37.34.76.72,1.18,1.13.43.4.87.81,1.3,1.22.44.41.88.82,1.33,1.23.43.39.82.76,1.19,1.11.37.35.7.66.99.92.29.26.5.47.65.62-1.53.25-3.03.48-4.49.71-1.45.21-2.94.41-4.47.59"/>
  <path class="st0" d="M150.14,93.13v-3.14h.45l1.1,2.74,1.08-2.74h.45v3.14h-.3v-2.77l-1.1,2.77h-.28l-1.11-2.77v2.77h-.29ZM154.04,90.3v2.83h-.3v-3.14h.84c.19,0,.34.02.44.04.12.03.24.07.32.14.12.09.22.21.29.36.08.15.11.3.11.47,0,.24-.08.45-.22.63-.14.17-.32.27-.55.28l.76,1.23h-.36l-.94-1.51h.3c.19,0,.36-.06.49-.18.12-.11.17-.26.17-.45,0-.11-.01-.21-.04-.3-.04-.09-.1-.17-.18-.24-.06-.05-.14-.1-.22-.12-.09-.03-.24-.04-.46-.04h-.46Z"/>
  <path class="st0" d="M259.51,139.15c.55,2.3,1.37,4.19,2.46,5.65,1.09,1.46,2.41,2.55,3.96,3.26,1.55.71,3.31,1.07,5.28,1.07,2.15,0,4.01-.45,5.57-1.34,1.56-.89,2.81-2.24,3.76-4.03.97-1.83,1.69-3.73,2.16-5.7.47-1.97.71-4.04.71-6.2,0-.47,0-.98-.02-1.51-.02-.53-.05-1.09-.11-1.67-.03-.58-.09-1.17-.16-1.76-.08-.58-.16-1.17-.25-1.75-.24-1.39-.64-2.7-1.18-3.95-.55-1.24-1.23-2.43-2.05-3.56-.82-1.17-1.9-2.04-3.26-2.61-1.35-.57-2.97-.85-4.85-.85h-.68c-1.79,0-3.41.42-4.85,1.26-1.44.84-2.71,2.09-3.8,3.73-1.09,1.68-1.93,3.51-2.5,5.48-.58,1.97-.91,4.1-1,6.36v-.11c0,3.18.27,5.92.82,8.23M255.48,122.7c.9-2.38,2.19-4.4,3.89-6.09,1.7-1.68,3.54-2.94,5.51-3.78,1.97-.84,4.08-1.26,6.33-1.26,2.7,0,5.09.45,7.17,1.34,2.08.89,3.86,2.24,5.35,4.03,1.46,1.79,2.58,3.86,3.37,6.2.79,2.34,1.23,4.97,1.32,7.9,0,2.16-.25,4.22-.75,6.2-.5,1.97-1.23,3.86-2.21,5.65-.97,1.79-2.2,3.31-3.69,4.55-1.49,1.24-3.22,2.21-5.19,2.91l10.06,9.05c-.06.04-.12.07-.18.11-.06.04-.12.07-.18.11-.06,0-.12.02-.18.06-.06.04-.12.07-.18.11-.06.04-.11.07-.16.11-.04.04-.1.07-.16.11-.03,0-.07.02-.11.05-.04.04-.1.07-.16.11-.18.11-.36.22-.54.33-.18.11-.35.22-.5.33-.15.11-.31.24-.46.38-.15.15-.3.29-.46.44-.03.03-.06.06-.09.08-.03.02-.06.05-.09.08-.03.04-.05.07-.07.11-.02.04-.04.07-.07.11l-10.01-10.8h-.27c-.09,0-.17.02-.23.05h-.75c-.07,0-.14.02-.2.06h-.5c-2.76,0-5.19-.47-7.28-1.4-2.09-.93-3.85-2.35-5.28-4.25-1.4-1.94-2.47-3.95-3.21-6.06-.75-2.1-1.16-4.3-1.25-6.6-.03-.07-.05-.15-.05-.22v-1.86c.09-3.11.58-5.85,1.48-8.23"/>
  <path class="st0" d="M293.1,124.01c.15.11.3.19.43.25.14.05.3.1.48.14.15.04.32.06.5.06h1.09c.06,0,.14-.01.23-.03.09-.02.18-.03.27-.03.18-.04.36-.08.52-.14.17-.06.31-.1.43-.14v15.41c0,1.17.11,2.27.32,3.29.21,1.02.52,1.97.91,2.85.43.88.97,1.55,1.62,2,.65.46,1.42.69,2.3.69h.23s.06-.02.09-.06h.27c.88-.07,1.63-.3,2.23-.69.61-.38,1.09-.9,1.46-1.56.36-.66.65-1.35.87-2.08.21-.73.35-1.5.41-2.3v-.11s.02-.09.04-.16v-17.39c.03.07.06.12.09.14.03.02.06.03.09.03,0,.04.01.05.04.05h.09c.06.04.12.06.18.06h.18c.12.04.23.07.34.11.11.04.22.06.34.06h1.16c.16,0,.33-.02.48-.06s.31-.08.48-.14c.17-.06.31-.1.43-.14v26.21c-.12,0-.25,0-.39-.03-.14-.02-.28-.05-.43-.08-.15-.04-.31-.06-.48-.08-.17-.02-.33-.03-.48-.03h-.27c-.09,0-.17.02-.23.05-.09,0-.18.01-.27.03-.09.02-.18.03-.27.03-.18.04-.36.06-.54.08-.18.02-.36.03-.55.03v-3.89c-.36.91-.8,1.66-1.32,2.25-.52.59-1.12,1.02-1.82,1.31-.67.22-1.38.4-2.12.55-.75.15-1.51.22-2.3.22-1.15,0-2.14-.15-2.96-.44-.82-.29-1.49-.75-2-1.37-.49-.62-.88-1.27-1.18-1.94-.31-.68-.53-1.4-.68-2.17-.03-.18-.07-.36-.11-.52s-.07-.34-.07-.52c-.03-.15-.05-.31-.07-.49-.02-.18-.02-.35-.02-.49-.03-.33-.05-.66-.05-.99v-17.82Z"/>
  <path class="st0" d="M333.25,135.01v-.63s-.04-.08-.04-.14v-.14c-.03-.99-.16-1.93-.39-2.83-.23-.9-.55-1.75-.98-2.55-.39-.84-.95-1.46-1.66-1.87-.71-.4-1.6-.6-2.66-.6-.79,0-1.5.17-2.14.52-.64.35-1.2.85-1.68,1.51-.48.69-.89,1.41-1.23,2.14-.34.73-.59,1.52-.77,2.36-.03.22-.07.44-.11.66-.04.22-.08.44-.11.66-.03.22-.04.43-.04.63v.58l11.83-.11v-.19ZM317.84,132.1c.5-1.78,1.27-3.24,2.3-4.41,1.03-1.17,2.16-2.06,3.39-2.66,1.23-.6,2.56-.91,3.98-.91,1.27,0,2.41.19,3.41.58,1,.38,1.84.94,2.5,1.67.7.77,1.29,1.56,1.78,2.39.49.83.87,1.69,1.14,2.61.09.36.18.74.27,1.12.09.38.15.78.18,1.18.06.36.11.72.14,1.07.03.35.04.67.04.96v.55c-.03.07-.04.14-.04.22v.22c0,.14,0,.29-.03.44-.01.15-.04.27-.07.38l-15.43-.11c0,1.68.14,3.18.41,4.5.27,1.32.68,2.47,1.23,3.45.55.99,1.34,1.73,2.39,2.22,1.05.49,2.33.74,3.85.74.61,0,1.21-.07,1.82-.22.61-.15,1.2-.38,1.78-.71.61-.29,1.15-.65,1.62-1.07.47-.42.89-.91,1.25-1.45l.36,2.91c-.03.07-.06.15-.09.22h-.04l-.05.05s-.07.07-.11.11c-.05.04-.1.07-.16.11-.03.04-.07.07-.11.11-.04.04-.1.07-.16.11-.48.37-.98.71-1.48,1.04-.5.33-1.03.6-1.57.82-.55.29-1.19.51-1.93.66-.75.15-1.59.22-2.53.22-1.88-.11-3.5-.5-4.85-1.18-1.35-.68-2.44-1.65-3.26-2.93-.82-1.28-1.45-2.65-1.89-4.12-.44-1.46-.7-2.99-.8-4.6v-.11c0-2.34.25-4.39.75-6.17"/>
  <path class="st0" d="M342.21,124.01c.09.07.18.14.27.19.09.06.2.1.32.14.12.04.23.06.34.08.1.02.22.03.34.03h.93c.17,0,.33-.02.48-.06.06,0,.13,0,.21-.03.07-.02.16-.04.25-.08.06-.04.13-.06.21-.08.07-.02.14-.04.2-.08v5.05c.33-.73.73-1.43,1.18-2.08.45-.66.96-1.26,1.5-1.81.54-.55,1.13-.96,1.75-1.23.62-.27,1.3-.41,2.03-.41h.54s.06.06.09.06h.09l-.36,5.05c-.21-.07-.43-.17-.66-.28-.23-.11-.45-.18-.66-.22-.21-.07-.41-.12-.59-.16-.18-.04-.36-.07-.54-.11-.58,0-1.09.12-1.52.36-.44.24-.83.61-1.16,1.12-.33.47-.62.99-.84,1.53-.22.55-.41,1.12-.57,1.7-.03.22-.07.43-.11.63-.05.2-.08.39-.11.57-.03.18-.04.36-.04.52v15.93h-.3c-.1,0-.22-.02-.34-.06-.12-.04-.24-.06-.34-.08-.11-.02-.21-.05-.3-.08h-.45c-.15,0-.31,0-.48.03-.17.02-.33.04-.48.08-.15.04-.3.06-.43.08-.14.02-.28.03-.43.03v-26.32Z"/>
  <path class="st0" d="M367.29,113.21c.12-.11.24-.22.36-.33.12-.11.24-.22.36-.33.15-.11.29-.2.43-.27.14-.07.26-.13.39-.17.06-.04.12-.06.18-.08.06-.01.12-.03.18-.03h.09s.07-.02.14-.05h.18c.24,0,.46.04.66.11.2.07.39.18.57.33.18.14.32.31.41.49.09.18.14.39.14.61,0,.14-.02.32-.07.52-.04.2-.13.41-.25.63-.06.11-.14.22-.23.33-.09.11-.18.2-.27.27-.12.11-.24.22-.36.33-.12.11-.26.22-.41.33l-6.78,5.1h-1.82l6.1-7.79ZM371.25,134.65v-.54s-.04-.08-.04-.14v-.14c-.03-.99-.16-1.95-.39-2.88-.23-.93-.54-1.8-.93-2.61-.4-.84-.96-1.47-1.68-1.89-.73-.42-1.63-.63-2.68-.63-.79,0-1.5.17-2.14.52-.64.35-1.21.87-1.73,1.56-.48.7-.9,1.42-1.23,2.17-.33.75-.58,1.55-.73,2.39-.03.22-.07.44-.11.66-.05.22-.08.42-.11.6-.03.22-.04.43-.04.63v.58l11.83-.11v-.17ZM355.84,131.67c.5-1.78,1.27-3.25,2.3-4.41,1.03-1.17,2.16-2.06,3.39-2.66,1.23-.6,2.56-.91,3.98-.91,1.27,0,2.41.19,3.41.58,1,.38,1.84.94,2.5,1.67.7.77,1.29,1.56,1.78,2.39.48.82.87,1.69,1.14,2.6.09.37.18.74.27,1.13.09.38.15.78.18,1.18.06.37.11.72.14,1.07.03.35.04.67.04.96v.55c-.03.07-.04.14-.04.22v.22c0,.15,0,.29-.02.44-.01.14-.04.27-.07.38l-15.43-.11c0,1.68.14,3.18.41,4.49.27,1.32.68,2.47,1.23,3.46.55.99,1.34,1.73,2.39,2.22,1.05.49,2.33.74,3.85.74.61,0,1.21-.08,1.82-.22.61-.15,1.2-.39,1.78-.71.61-.29,1.15-.65,1.62-1.07.47-.42.89-.91,1.25-1.45l.36,2.9c-.03.07-.06.15-.09.22h-.04l-.05.05s-.07.07-.11.11c-.04.04-.1.07-.16.11-.03.04-.07.07-.11.11-.04.04-.1.08-.16.11-.48.37-.98.71-1.48,1.04-.5.33-1.03.64-1.57.93-.54.22-1.19.4-1.93.55-.75.15-1.59.22-2.53.22-1.88-.11-3.5-.5-4.85-1.18-1.35-.68-2.43-1.65-3.25-2.93-.82-1.28-1.45-2.65-1.89-4.11-.44-1.46-.7-3-.8-4.61v-.11c0-2.34.25-4.4.75-6.17"/>
  <path class="st0" d="M379.49,126.16h-2.87c.06,0,.1-.03.11-.08.01-.05.04-.12.07-.19.03-.07.05-.15.07-.25.02-.09.02-.17.02-.25s0-.16-.02-.28c-.02-.11-.04-.22-.07-.33-.03-.11-.05-.22-.07-.33-.02-.11-.05-.22-.11-.33l2.87-.11v-5.21l3.59-1.7v6.91h5c-.03.15-.07.28-.11.39-.04.11-.08.2-.11.27-.03.08-.05.16-.05.25v.5c0,.09.02.17.05.24,0,.04,0,.08.02.14.01.06.04.1.07.14.03.07.05.13.07.16.02.04.04.09.07.17l-5-.11v15.84c0,.26,0,.51.02.77.01.26.04.51.07.77.06.69.15,1.36.27,2,.12.64.29,1.23.5,1.78.21.58.52,1.03.94,1.32.41.29.9.44,1.48.44.15,0,.32-.02.5-.05.18-.04.38-.07.59-.11.21-.07.43-.15.66-.25.23-.09.46-.21.71-.36v1.59c-.4.26-.79.44-1.18.55-.39.11-.77.22-1.14.33-.36.11-.7.19-1.02.25-.32.06-.63.08-.93.08-.85,0-1.59-.15-2.21-.47-.62-.31-1.15-.78-1.57-1.4-.43-.62-.74-1.37-.95-2.25-.21-.88-.32-1.88-.32-3.02v-17.82Z"/>
  <path class="st0" d="M404.61,137.4c-1.67.26-3.11.55-4.32.88-1.21.33-2.18.75-2.91,1.26-.73.47-1.28,1.06-1.66,1.76-.38.69-.57,1.52-.57,2.47v.41c0,.13.01.25.04.36,0,.11,0,.23.02.36.01.13.04.27.07.41v.08s.01.04.04.08v.25s.01.03.05.03c0,.04,0,.07.02.08.01.02.04.05.07.08.15.33.34.64.57.94.23.29.52.58.88.87.36.25.75.46,1.16.6.41.15.86.22,1.34.22.24,0,.48-.02.71-.06.23-.04.46-.09.71-.17.24-.07.48-.17.73-.3.24-.13.48-.29.72-.47.18-.15.37-.31.57-.49.2-.18.4-.38.62-.6.09-.11.18-.22.27-.33.09-.11.2-.24.32-.38.09-.14.18-.29.27-.44.09-.15.18-.29.27-.44v-7.46ZM391.64,142c.21-.73.53-1.41.95-2.03.43-.62,1.01-1.18,1.75-1.67.74-.49,1.65-.91,2.71-1.23l5.73-1.42c.33-.04.63-.14.89-.3.26-.16.46-.37.62-.63.15-.29.26-.6.34-.93.07-.33.11-.68.11-1.04v-.38c-.03-.07-.04-.15-.04-.22v-.22c-.03-.15-.06-.29-.07-.44-.02-.15-.06-.29-.12-.44-.15-.58-.38-1.15-.68-1.7-.3-.55-.67-1.06-1.09-1.54-.43-.51-.91-.89-1.44-1.15-.53-.25-1.12-.38-1.75-.38h-.36c-.36,0-.7.03-1,.11-.3.07-.59.18-.86.33-.27.15-.55.31-.82.5-.27.18-.54.4-.82.66-.15.15-.3.31-.46.49-.15.18-.3.37-.45.55-.15.18-.31.38-.48.6-.17.22-.33.44-.48.66l-.68-.11v-3.01c.06,0,.14-.03.23-.08.09-.06.18-.1.27-.14.09-.07.18-.14.27-.22.09-.07.18-.15.27-.22.43-.29.87-.56,1.34-.8.47-.24.98-.48,1.52-.74.54-.22,1.11-.39,1.7-.52.59-.13,1.22-.19,1.89-.19,1.33,0,2.5.18,3.5.52,1,.35,1.82.87,2.46,1.56.64.69,1.12,1.63,1.43,2.79.32,1.17.48,2.56.48,4.17v13.71c0,.36.02.65.07.85.04.2.13.36.25.47.12.11.26.19.41.25.15.05.32.08.5.08h.27c.09,0,.2-.02.32-.06.12,0,.24-.02.34-.05.11-.04.22-.07.34-.11v1.16c-.15.22-.31.39-.48.52-.17.13-.34.23-.52.3-.09.04-.18.06-.27.06s-.18.02-.27.06c-.12.03-.23.06-.32.08-.09.02-.18.03-.27.03h-.07s-.02.01-.02.05h-.36c-.46,0-.89-.06-1.32-.19-.43-.13-.82-.32-1.18-.58-.4-.29-.7-.64-.91-1.04-.21-.4-.35-.84-.41-1.32-.09.11-.18.2-.25.27-.08.07-.15.15-.21.22-.09.07-.17.14-.25.22-.08.07-.15.15-.21.22-.54.51-1.08.95-1.59,1.32-.52.37-1.03.64-1.55.83-.51.22-1.02.38-1.52.49-.5.11-.98.16-1.43.16-.91,0-1.74-.15-2.48-.47-.75-.31-1.42-.77-2.03-1.4-.58-.66-1.02-1.4-1.32-2.22-.3-.82-.46-1.71-.46-2.66v-.11c0-.8.11-1.57.32-2.3"/>
  <path class="st0" d="M415.72,124.01c.09.07.18.14.27.19.09.06.2.1.32.14.12.04.23.06.34.08.1.02.22.03.34.03h.93c.17,0,.33-.02.48-.06.06,0,.13,0,.21-.03.07-.02.16-.04.25-.08.06-.04.13-.06.21-.08.07-.02.14-.04.2-.08v5.05c.33-.73.73-1.43,1.18-2.08.45-.66.96-1.26,1.5-1.81.55-.55,1.13-.96,1.75-1.23.62-.27,1.3-.41,2.03-.41h.54s.06.06.09.06h.09l-.36,5.05c-.21-.07-.43-.17-.66-.28-.23-.11-.45-.18-.66-.22-.21-.07-.41-.12-.59-.16-.18-.04-.36-.07-.54-.11-.58,0-1.09.12-1.52.36-.44.24-.83.61-1.16,1.12-.33.47-.61.99-.84,1.53-.22.55-.41,1.12-.57,1.7-.03.22-.07.43-.11.63-.05.2-.08.39-.11.57-.03.18-.04.36-.04.52v15.93h-.3c-.1,0-.22-.02-.34-.06-.12-.04-.23-.06-.34-.08-.11-.02-.21-.05-.3-.08h-.45c-.15,0-.31,0-.48.03-.17.02-.33.04-.48.08-.15.04-.3.06-.43.08-.14.02-.28.03-.43.03v-26.32Z"/>
  <path class="st0" d="M432.6,139.64c.03.36.06.77.09,1.21.06.44.14.89.23,1.34.09.46.23.94.41,1.45.21.66.49,1.3.82,1.92.33.62.74,1.21,1.23,1.75.45.55,1.02.97,1.71,1.26.69.29,1.45.47,2.3.55.97,0,1.86-.24,2.69-.72.82-.47,1.56-1.2,2.23-2.19.64-.95,1.15-2.16,1.52-3.62.38-1.46.62-3.16.71-5.1,0-1.72-.14-3.28-.41-4.69-.27-1.41-.68-2.66-1.23-3.75-.54-1.06-1.25-1.86-2.11-2.42-.87-.54-1.88-.82-3.03-.82s-2.13.28-3.01.85c-.88.57-1.62,1.44-2.23,2.6-.61,1.14-1.08,2.33-1.41,3.59-.33,1.26-.53,2.59-.59,3.98v1.67c0,.09.01.17.04.24v-.11c0,.29.02.62.04.99M429.08,132.46c.53-1.76,1.33-3.31,2.39-4.66,1.06-1.39,2.31-2.42,3.75-3.1,1.44-.68,3.06-1.02,4.85-1.02,1.33,0,2.53.2,3.57.6,1.05.4,1.95.99,2.71,1.75.73.77,1.37,1.57,1.91,2.41.54.84,1,1.74,1.36,2.69.24.62.44,1.23.59,1.84.15.6.27,1.2.36,1.78.09.58.16,1.11.2,1.56.04.46.07.85.07,1.18s0,.67-.02,1.01c-.01.35-.05.7-.11,1.07-.03.36-.08.72-.16,1.07-.07.35-.16.7-.25,1.07-.3,1.13-.74,2.23-1.32,3.29-.58,1.06-1.29,2.07-2.14,3.02-.85.91-1.87,1.6-3.07,2.06-1.2.46-2.56.69-4.07.69h-.68c-1.7,0-3.21-.29-4.53-.88-1.32-.58-2.45-1.48-3.39-2.68-.94-1.21-1.65-2.55-2.12-4.03-.47-1.48-.7-3.08-.7-4.8v-.11c0-2.12.26-4.06.8-5.81"/>
  <path class="st0" d="M181.87,67.98c3.1-9.37,6.54-18.48,10.09-27.61,3.44,9.49,6.77,19.1,9.87,28.72h-20.3l.33-1.11ZM160.69,101.75c1.66-.37,3.55-.62,5.22-.62,1.77,0,3.55.25,5.21.62,1.78-8.13,4.55-15.77,6.99-23.54l.55-1.73c4.55-.12,8.99-.25,13.53-.25,4.1,0,8.1.25,12.2.37,3,8.26,5.32,16.64,7.65,25.14,3.11-.37,6.21-.62,9.32-.62s6.32.37,9.43.62v-1.11l-.56-1.35c-10.2-26.62-19.85-53.48-29.06-80.47l-.78-2.1c-1.45.25-2.77.62-4.22.62s-2.77-.37-4.21-.62c-6.99,21.32-14.86,42.27-23.07,62.98l-8.21,21.07v.98Z"/>
  <path class="st0" d="M233.22,45.18c.11,5.3.56,10.47.56,15.77v4.93c0,4.68-.11,9.37-.11,14.05,0,5.18-.22,10.23-.22,15.4,0,2.1-.33,4.31-.33,6.41,2.66-.12,5.33-.62,7.99-.62s5.32.49,7.98.62c-.11-9.24-.55-18.48-.55-27.73,0-7.76-.56-22.18,9.65-22.18,9.54,0,9.09,12.57,9.09,19.97,0,3.08-.11,6.16-.11,9.24-.11,4.81-.22,9.49-.56,14.29-.11,2.1-.33,4.31-.44,6.41,2.55-.12,4.99-.62,7.54-.62,2.99,0,5.88.37,8.87.62,0-6.78-.11-13.68-.11-20.46,0-5.05.11-9.98.11-15.03,0-6.29.34-13.06-3.66-18-3.88-4.68-8.1-6.9-13.87-6.9-6.88,0-12.65,4.56-16.86,10.35l.33-9c-2.44.25-4.77.49-7.21.49-2.77,0-5.44-.25-8.21-.49l.11,2.46Z"/>
  <path class="st0" d="M322.47,24.6c1.22-.86,2.33-1.73,3.55-2.59,1.33-1.85,2.11-2.34,2.11-4.81,0-1.48-.44-2.95-1.33-3.94-1-.86-2.22-1.48-3.55-1.48-1.22,0-2.77,0-3.77.98-1.44.74-2.55,2.22-3.55,3.45l-14.2,18.36h6.1l14.64-9.98ZM291.41,57.26c.33-.5.89-.99,1.22-1.48,3.44-3.33,7.76-5.55,12.31-5.55,5.1,0,10.32,4.31,10.32,10.23,0,1.85-.11,3.45-1.45,4.69-2.44,1.72-5.32,2.46-8.09,3.2-4.88,1.36-9.1,2.22-13.65,5.18-4.21,2.71-6.65,8.14-6.65,13.56,0,10.6,6.77,16.14,15.86,16.14,5.77,0,11.31-3.33,14.2-8.87,1.78,5.3,5.77,8.75,10.98,8.75,1.55,0,3.1-.37,4.66-.74,1.77-.74,3.66-1.36,5.32-2.47v-1.23c0-3.2-.11-.86-3.77-2.1-1.44-.74-2.55-3.45-2.66-5.17-.11-2.34-.11-4.68-.11-7.03,0-6.04.33-11.96.33-17.99,0-2.72-.11-5.55-.11-8.26-.22-12.2-11.09-16.51-20.41-16.51-6.99,0-15.31,2.96-20.52,8.26l1.44,7.4h.77ZM304.5,75.37c1.88-1.6,4.32-2.22,6.54-3.2,1.45-.62,3-1.35,4.44-2.1-.22,3.95-.22,7.89-.22,11.83,0,6.16-1.45,12.94-8.21,12.94-4.77,0-6.1-4.81-6.1-9.37,0-3.94.67-7.51,3.55-10.11"/>
  <path class="st0" d="M354.63,8.7c-2.77.62-5.66.62-8.43.62s-5.55-.12-8.21-.62c.56,13.43.89,26.87.89,40.18,0,4.81-.11,9.61-.11,14.3l-.44,30.69c0,2.59-.22,5.18-.34,7.89,2.66-.12,5.33-.62,7.99-.62s5.32.49,7.98.62c-.11-9.24-.55-18.48-.55-27.73,0-7.89-.55-22.18,9.65-22.18,3.88,0,7.32,3.33,8.32,7.39.55,2.83.77,9.37.77,12.45,0,3.58,0,7.27-.22,10.84l-.33,11.34c-.11,2.59-.33,5.3-.55,7.89,2.66-.12,5.43-.62,8.1-.62s5.55.37,8.32.62c0-2.22-.11-4.31-.11-6.53v-32.41c0-6.04-.44-11.21-4.55-15.65-3.66-3.95-7.87-5.79-12.98-5.79-5.99,0-12.53,4.93-16.42,9.74l.22-13.31,1-29.09Z"/>
  <path class="st0" d="M427.34,101.75c2.33-.24,4.77-.62,7.1-.62,2.77,0,5.55.49,8.32.62l-.11-2.46c-.33-5.55-.56-11.09-.56-16.51v-6.29c0-6.53.11-13.06.22-19.72,0-4.68.11-9.36.44-14.05-2.66.25-5.32.49-7.98.49s-5.33-.24-7.99-.49c.11,9.24.55,18.48.55,27.73,0,7.77.45,22.18-9.65,22.18-3.88,0-6.43-2.59-7.87-6.41-1.11-2.59-1.22-7.39-1.22-10.23,0-11.09.11-22.18,1.11-33.27-2.55.25-4.99.49-7.55.49-2.99,0-5.87-.24-8.87-.49,0,2.22.11,4.31.11,6.53,0,9-.11,17.87-.11,26.87,0,6.16-.55,13.81,2.88,19.1,3.33,5.3,9.21,7.64,14.86,7.64,7.77,0,11.64-3.95,16.64-10.11l-.33,9Z"/>
  <path class="st0" d="M451.82,57.26c.33-.5.88-.99,1.22-1.48,3.44-3.33,7.76-5.55,12.31-5.55,5.1,0,10.31,4.31,10.31,10.23,0,1.85-.11,3.45-1.44,4.68-2.44,1.73-5.32,2.47-8.09,3.2-4.88,1.36-9.1,2.22-13.64,5.18-4.21,2.71-6.65,8.14-6.65,13.56,0,10.6,6.77,16.14,15.86,16.14,5.77,0,11.31-3.33,14.2-8.87,1.77,5.3,5.77,8.75,10.98,8.75,1.55,0,3.11-.37,4.66-.74,1.77-.74,3.66-1.36,5.32-2.47v-1.23c0-3.2-.11-.86-3.77-2.1-1.44-.74-2.55-3.45-2.66-5.17-.11-2.34-.11-4.68-.11-7.03,0-6.04.33-11.96.33-17.99,0-2.71-.11-5.55-.11-8.26-.22-12.2-11.09-16.51-20.41-16.51-6.99,0-15.31,2.96-20.52,8.26l1.44,7.4h.78ZM464.91,75.37c1.89-1.6,4.32-2.22,6.55-3.2,1.44-.62,2.99-1.35,4.43-2.1-.22,3.95-.22,7.89-.22,11.83,0,6.16-1.44,12.94-8.21,12.94-4.77,0-6.1-4.81-6.1-9.37,0-3.94.66-7.51,3.55-10.11"/>
  <path class="st0" d="M545.76,47.03c-5.21-3.82-12.75-5.67-19.08-5.67-17.41,0-29.17,12.45-29.17,31.92,0,8.63,2.55,15.9,7.99,22.06,5.44,6.04,13.64,7.76,21.07,7.76,3.99,0,11.87-1.6,14.97-4.68l2.66-7.27-1.89-1.73c-2.66,3.45-7.43,5.8-11.53,5.8-5.21,0-9.76-1.73-12.87-6.78-3.33-5.3-3.66-11.09-3.66-17.38,0-9.12,2.89-23.66,13.31-23.66,6.55,0,10.54,5.55,11.31,12.32h2.66l4.21-12.69Z"/>
</svg>